<?xml version='1.0' encoding='utf-8'?>
<svg xmlns="http://www.w3.org/2000/svg" width="1000" height="422" viewBox="0 0 1000 422"><rect x="0" y="0" width="100%" height="100%" fill="none" /><path d="M889.7 82.2l-3.1 1.1-4.8 2.7-7.7 3.3-7.8 3.3-5.7 3-1.1 4.8-0.7 7.5-0.9 4.5-5.7 0.6-5.5 1.1-1.4-2.6-1.9-1.9-1.4-2.1-1-2.4-1.3-1.7-1.8-1.2-2.4-3.7-1-4.9 3-5.9 4.1-4.6 4-2 1.2-4.2-1.3-4.4-0.9-2.3-0.4-0.7-0.5-1.5-0.3-2.7-0.7-3.6 0.5 0 1-0.7 1.4-2.2 1.1-1 0.5-1.1 0.4-2.6 0.5-1 0.9-0.8 0.1 0 0.2 0 0.9-0.4 2.4-0.2 6.7 0.6 0.9 0.4-0.4 0.6-0.1 0.7-0.1 0.6-0.2 0.6-0.4 0.4-1 0.8-0.4 0.7 1.3 0.7 0.9 1 0.9 0.3 1.1-1.4 0.7-0.4 0.3 0.4 0.3 0.8 0.4 0.7 0.3 0.3 1.4 0.4 0.3 0.3 0.2 0.3 0.2 0.2 0.5 0.2 0.3 0.4 1.4 2.7 0.7 0.8 3.5 2.4 2.3 2 1.5 0.7 1.4 0.2 0 0.3-0.6 0.9-0.7 0.6-2.6 1.3 1.3 0.4 1.1-0.1 0.9 0.1 1 1.1 1.1 2.8 0.7 0.5 4.4-1.2 1.3-0.1 1.5 0.4 1.3 0.8 1.3 1.2 0.7 1.5-0.5 1.6z" id="TR75" name="Ardahan" fill="none" stroke="#000000" stroke-width="0.6" data-area-id="1" /><path d="M842.7 61.7l0.7 3.6 0.3 2.7 0.5 1.5 0.4 0.7 0.9 2.3 1.3 4.4-1.2 4.2-4 2-4.1 4.6-3 5.9-2.8 0.3-2.8 0.6-3.3-0.3-3.2 0.3-1.6 0.8-1.5 1.3-0.6 2.5 0.3 2.7-1.2 2.5-1.9 1.9-0.9 2.5-0.1 2.8-2.2 3.3-4-2.3-3.8-1.1-3.7 1.1-4 2.6-4.4 1.7-3.2-2.9 0.6-5.3 1.3-2.2-0.4-2.1-1.7-0.6-5.9-0.9-3.7-2.1 0.7-2.5 4.5-5.3 1.1-0.6 1-0.9 0.4-1.3 0.7-1.3 2.6-1.7 1.3-2.9-1.4-1.6-1.9-0.9-0.5-1.1-0.6-1.1-0.9-0.6-0.9-0.9-0.9-2.1-0.4-2.5-1.3-3.3-0.1-0.2 4.1-3.3 1.2-0.4 1-0.6 0.5-0.2 1.7-0.2 0.6-0.2 0.9-0.7 0.7-1.1 0.5-1.4 0.2-1.4 0.5-0.3 2.7-2.5 0.7-1.2 5 2.2 0.7 0.1 1.4-0.1 1.2-0.6 0.3 0 0.1 0.3-0.1 0.5 0 0.5 0.2 0.4 0.6 0.2 1.4 0.2 0.6 0.2 1.9 1.7 0.6 0.3 0.4-0.3 1.9-1.6 1.5-2.1 0.7-0.5 1.9-0.8 3.4 1.3 1.7-0.5 0.6-0.4 0.7-0.1 0.7 0.1 0.7 0.4 1.4-0.5 0.8 0 0.6 0.5 0.8 0.7 1.2 0.1 2.3-0.1 8.3 3.2 0.7 0z" id="TR08" name="Artvin" fill="none" stroke="#000000" stroke-width="0.6" data-area-id="2" /><path d="M886 315.3l-1.3-0.9-0.6-0.1-0.8 0.1-0.5 0.2-0.4 0.4-0.4 0.1-0.4 0-0.4-0.2-6.2-3.3-0.8-0.3-1.5 0.2-1.9 0.5-1.8 0.8-1.2 0.9-2.1 0.7-1.9-0.3-3.9-1.3-0.4-0.3-0.2-1-0.4-0.4-0.6 0-0.4 0-2.4 1-0.3 0.2-0.3 0.5-0.1 0.4 0 0.4-0.2 0.5-6 8.7-0.5 1.6-0.2 0.3-0.8 0.4-4 0.7-2.8 0.9-2.1 0.2 0-1.7-0.1-0.8-0.4-0.4-0.5-0.7 0.8-3.4-0.3-0.7-0.3-0.2-1.6-1.3-0.2-0.3-0.3-0.6-0.2-0.3-0.3-0.1-0.3 0.2-0.3 0.4-0.3 0.1-1.4-0.7-0.7-0.1 0-0.3 0.1-0.6-0.1-0.7-0.5-0.6-0.9 0.7-0.7 0.4-2.4 3.2-3.5 3.3-2.1 1.3-5.4 1.3-0.9-3.8-3-2.4-5.5-1.7-0.8-2.5 2-2.2 4.5-2.5 3.5-1.7 0.6-4-1.3-5.2-2.8-7.5 6.7 3.3 9.4 0.7 3.7-3.7 6.3 0.3 9.6 2.5 10 1.4 8.1 0.8 2.9-3 0.5-3.4 3.8-2 4.1 0.5 3.6 1.5 1.2 0.3 2.3-0.1 2.3-0.3-0.3 5.5-1 3.5 0.8 3.2 1.6 3.9-0.4 5.2-1.2 3.2-0.6 1.2z" id="TR73" name="Sirnak" fill="none" stroke="#000000" stroke-width="0.6" data-area-id="3" /><path d="M886 315.3l0.6-1.2 1.2-3.2 0.4-5.2-1.6-3.9-0.8-3.2 1-3.5 0.3-5.5 6.4 0 6.3-1.1 1.3-0.7 1.4-0.5 2 0.3 2 0.8 3 0 3.1-0.6 2.6-1.6 1.2-3.3 1.9-3.4 3.5-0.7 4.1 0.5 0.1 0-0.2 0.5 0.9 1.3 1.6 0.3 3.1-0.4 0.6 0.2 1.7 0.8 0.5 0.4 0.3 0.5 0.1 0.7 0.3 0.8 0.5 0.6 0.4 0.2 0.3-0.1 0.3-0.1 0.4 0.3 0 0.3-0.2 0.9 0 0.4 0.3 0.7 0.7 0 0.8-0.2 0.6-0.4 1.3-0.1 1.3 0.6 1.2 1 1.7 2.2 0.1 0.5-0.4 0.8-1.7 1.3-0.4 0.6-0.2 1.8 1 1.1 1 0.8 0.2 1-0.4 1.2-0.3 1.5-0.1 1.5 0.2 1.2 0.2 1-0.6 1.8 0.3 1 0.6 0.3 1.8 0.2 0.7 0.6 0.7 1.7 0.4 0.5 1.8-0.3 0.4 0.5 0.3 0.9 0.4 0.8 2.7 1.8 1.1 1.2-0.2 2-0.5 0.7-0.7 0.4-0.6 0.5-0.3 1 0.2 1.2 0.4 1 0.3 1.1-0.3 1.1-0.6-1-0.9-0.5-5-0.7-0.9 0-1.5 0.7-1.9 1.4-1.7 1.6-1.1 1.5-1.2 0.9-1.2 0.7-4.1 1.3-0.4 0.7-0.1 0.9-0.8 1.3-0.4 1-0.5 0.4-0.6 0.1-1.9-0.5-0.5-0.4-0.3-0.6-1.9-4.3-0.3-1.3 0-1.2 0.4-1.2 0.8-1.1 0.6-0.3 0.6-0.1 0.4-0.2 0.4-0.7 0.1-0.6-0.1-0.8-0.2-1.3-0.4-1.3-0.6-1.1-0.8-0.8-1-0.7-4.6-1.9-0.9-0.1-1.6-0.3-2.1 0.3-1.8 1.5-1.4 2.1-1.4 1.7-2.6 0.4-0.8 0.9-0.6 0.2-0.4-0.3-1-1-0.5-0.3-1.1-0.3-1.2-0.1-4.9 0.3-1.1-0.1-1.2-0.5-0.9-0.7-0.4-0.2-0.6-0.1-0.6 0.1-1.2 0.5-0.6 0.1-0.8-0.4-2.2-1.8-1.9-1-0.6-0.5z" id="TR30" name="Hakkari" fill="none" stroke="#000000" stroke-width="0.6" data-area-id="4" /><path d="M938 173.5l-0.8-0.6-1.8-0.5-8.5 2-3.7-0.5-3.5-1.1-4.7 0.6-4.4-0.7-0.3-0.9-0.3-0.9-3-0.7-4.3-2-1.4-1.9-1.1-2.3-1.5-1.1-1 0-1.6-0.7-0.6-0.5-1.5-0.3-3.2 1.3-3.1 2.1-1.6-0.6-0.7-0.7-0.7-2.3 0-1.5 0.2-2.9-1-3.5 1.8-2.1 0-2.4 2.5-1.2 5.9-0.8 6.2-2.3 2.2 1.2 4.4 1.3 5.2 2.9 5.7 0.9 0.7-0.2 1.7-1.2 1-0.3 0.5 0.2 0.6 0.6 0.4 0.1 0.5-0.1 0.9-0.3 1.4-0.1 2.8-0.8 1.6 0 1.8 0.5 2.6 1.6 4 2.3 2.7 2.4 1.2 1.4 0.6 0.9 0.2 0.9 0.2 0.5 0.4 0.4 0.7 0.6 0.1 0.6 0.1 0.7 0.1 0.3 0.7-0.4 1.7 2 0.9 0.6 0.2 0 0.5-0.1 0.3 0.1 0.2 0.2 0.3 0.5 2.9 3.8 0.7 1.3 0.5 0.7 0.5 2.4 0.5 0.7-3.8-2.8-0.9-0.8-2.9-1.3-0.6-0.7-1.3-2-0.7-0.5-1.2 0.4-5.1 4.1-0.2 0.7 0.3 2-0.1 0.8z" id="TR76" name="Iğdir" fill="none" stroke="#000000" stroke-width="0.6" data-area-id="5" /><path d="M938 173.5l0 0.2-0.3 0.8-1.6 3.2-0.2 0.8-0.1 1 0.1 0.9 0.1 0.8 0 0.7-0.5 0.7-0.2 1.4 0.2 1.2-0.1 1.1-0.8 1.2-0.9 0.7-2.4 1.1-1.1 0.3-1.2-0.1-3.3-1.7-1.1-0.1-2.6 0.7-1.1 0.1-1-0.1-0.8 0-0.7 0.2-0.9 0.7-0.6 0.7 0.3 0.7 1.3 1.5-6.7 1.8-1.8-0.3-0.8-0.3-2.8-0.3-2.4-0.7-1.8-0.3-1.8 0.2-1.3 1-1.2 1.3-1.7-0.1-4.1-0.8-2.1-1.3-2.8-2.9-3.2-1.5-3.7-0.2-2.1 1.6-1.7 2.3-1.6 0.5-2.9 0.6-1.1 0.4-0.4 1.9 1.8 1 1.9 0.8 0.3 1.9-0.3 2.1-0.1 2.1-1.2 1.3-5.5 2.3-8.8 1.9-1.6 1.3-1.6 1-2.3 0.7-2 1.3-0.2-3.2 0.4-3 0.5-2.4-0.1-0.9-0.2-0.8 0.2-4-1.7-2.5-1.2-1.2-0.8-1.7-1.5-1.7-1.5-1.4-1.9-3.4-1.4-3.8 1.5-2.5 0.5-2.9-0.1-8.3 0.5-1.7 0.6-0.4-6.7-2.8-3.9-4.7 1.7-0.7 3.6 0.6 1.7-0.6 1-1.5 1.2-0.5 0.6-0.1 1.2 0.1 1.6-0.9 1.3-1.5 9.2 1.8 14.6-4.2 5.2 0.1 2.2 0.6 2.1-0.5 2.6 1.1 1 3.5-0.2 2.9 0 1.5 0.7 2.3 0.7 0.7 1.6 0.6 3.1-2.1 3.2-1.3 1.5 0.3 0.6 0.5 1.6 0.7 1 0 1.5 1.1 1.1 2.3 1.4 1.9 4.3 2 3 0.7 0.3 0.9 0.3 0.9 4.4 0.7 4.7-0.6 3.5 1.1 3.7 0.5 8.5-2 1.8 0.5 0.8 0.6z" id="TR04" name="Agri" fill="none" stroke="#000000" stroke-width="0.6" data-area-id="6" /><path d="M887.1 289.6l-2.3 0.3-2.3 0.1-1.2-0.3-3.6-1.5-4.1-0.5-3.8 2-1.9-4.5 0.5-1.6 0.7-1.5 0.2-3.5 0.6-2.4 0.2-2.6-0.3-2.4 0.2-2.5-0.5-4.3-3.4-1.3-3.8-0.7-3.7 0.3-2.5-0.9-0.9-3.1 0.5-2.1-0.1-1.6-0.2-0.7-1.7-3.9-0.3-1.3 0.5-2.5 0.8-0.9 5.1-2.9 3-2.1 1-1.7 0.8-1.9 4.4-6.5 2.6-2.8 3.4-2.6 1.4-4.5-1.9-3-5.6-3.4-1.4-3.1-0.1-4.6 5.5-2.3 1.2-1.3 0.1-2.1 0.3-2.1-0.3-1.9-1.9-0.8-1.8-1 0.4-1.9 1.1-0.4 2.9-0.6 1.6-0.5 1.7-2.3 2.1-1.6 3.7 0.2 3.2 1.5 2.8 2.9 2.1 1.3 4.1 0.8 1.7 0.1 1.2-1.3 1.3-1 1.8-0.2 1.8 0.3 2.4 0.7 2.8 0.3 0.8 0.3 1.8 0.3 6.7-1.8 0.2 0.6 0.3 1.3 0.5 1.2 0 0.5-0.1 0.4 0 0.6 0.2 0.5 0.5 1.2 0.1 0.5-0.3 1.1 0 0.6 1.2 0.9 2.2 1.1 1.8 1.3 0.4 1.5-1 1.9-0.2 1 0.4 2.4-0.4 0.7-0.8 0.6-0.7 1.2 0.3 0.4 0.1 0.4 0.2 1 0.3 0.4 0.5 0.3 0.3 0.4 0.1 0.6-0.1 0.5 0.2 0.5 0.2 0.4 0.4 1.4 0.7 0.9 0.8 0.8 2.5 1.2 0.2 1.8-1.3 4.4-0.2 1.2 0.1 0.7 0.3 0.8 0.2 1.1-0.2 0.4-0.4 0.4-0.2 0.4 0.6 0.3 0.9 0.3 0.3 0.2 0.4 0.4 0.3 1 0 1.3-0.2 2.4 0.4 3.1 0 1-0.6 2.5 0 0.7 0.1 1.5 0 0.6-0.2 1 0.2 0.5 0.4 0.3 0.7 0.3 2.4 0.5 1.5-0.9 0.6-0.2 0.8 0.3 0.7 0.6 0.5 0.8 0.4 1 0 0.9-1 1.6-1.8 1.3-1.3 1.5 0.2 2.9-0.2 1.2-0.2 1.2-0.4 0.9-0.3 0.5-0.9 0.3-0.3 0.4-0.1 0.5 0.4 1.1-0.3 0.4-0.9 0.4-0.6 0.5-0.5 0.8-0.4 1.3-0.4 0.9-1.1 1.3-0.5 0.9-0.4 0.7-0.3 0.8 0 0.7 0.2 0.9 0 0.8-0.4 0.6-0.5 0.6 0 0.2-0.1 0-4.1-0.5-3.5 0.7-1.9 3.4-1.2 3.3-2.6 1.6-3.1 0.6-3 0-2-0.8-2-0.3-1.4 0.5-1.3 0.7-6.3 1.1-6.4 0z" id="TR65" name="Van" fill="none" stroke="#000000" stroke-width="0.6" data-area-id="7" /><path d="M166.1 54.8l-2.2 3-0.1 0-8.3 0.9-8.2 1.1-5.2 1.2-4.6 1.4-2.3 3.4-1.7 3.5-2.7 2.1-3.1 0.8-2.6-1.7-2.1-2.8-2.7-1.8-5.5 0-7.7 0.6-7.2 1.6-1.4-2.9 2.3-4.8 0.7-4.6 1.9-2.9 1.1-6.2-0.6-6.1-1.5-6.1-1.2-7.3 0-0.1 0.6-0.5 0.5-0.3 0.5 0 0.5 0.1 0.4 0 0.5-0.5 0.5-0.2 0.9 0.2 0.4-0.1 0.6-0.7 0.3-0.8 0.5-0.6 0.6-0.3 1-0.6 1-2 1.1-0.6 0.1 0 0.8 0 0.9 0.3 0.8 0.5 0.7 0.6 0.6-0.1 1 0.1 1.2 0.3 0.2-0.1 0-0.2 0.2-0.3 1-1.4 0.6-0.5 1-0.1 1.7 0.3 1.5 1 1.3 1.2 2 3.2 1.1 1.2 1.1 1 3.5 2 0.7 0.6 1.2 1.6 0.6 0.4 0.8-0.3-0.7-0.3 0.1-0.1 0.3-0.2 0.2-0.1-0.2-0.1-0.1-0.1-0.1-0.1-0.1-0.1 1-0.4 0.5-0.3 0.4-0.5 0.3 0.2 0.3 0 0.2-0.3 0.1-0.6 3.7-1 1.7 0.1 2.5 1.4 0.6 0.2 0.7-0.1 0.6-0.2 0.1-0.4-0.7-0.4 0.1-0.7 0-0.8 0.1-0.7 0.2 0 0.2-0.1 0.2 0.1 0.2 0 0.9-0.1 0.4 0 1.2 0.3 1.2 0.6 0.7 0.2 2.3-0.2 0.7 0.2 1.7 0.4 0.7 3 0 0.7 0.2 0.2 0.3 0.4 0.2 0.5 0 0.4-0.5 0.3-0.5-0.1-0.8-0.4-0.8 0.1-0.6 0.3-0.4 0.9-0.2 1.6 0.3 1.7 0.7 1.1 0.9 1 0.7 1.2 0.9 2.8 0.6 0.9 0.8 0.8 0.4 0.4 0.3 0.7 0.1 0.1 0.1 0.2 0.1 0.4-0.1 0.2-0.3 0-0.2 0-0.1 0.4 0.4 1 0.6 1.2 0.8 1 1.4 0.8 0.7 0.9 1 1.6 1.2 1.2z" id="TR39" name="Kirklareli" fill="none" stroke="#000000" stroke-width="0.6" data-area-id="8" /><path d="M101.2 27.1l0 0.1 1.2 7.3 1.5 6.1 0.6 6.1-1.1 6.2-1.9 2.9-0.7 4.6-2.3 4.8 1.4 2.9 0.6 1.1 0.3 8.8-0.7 3.8-2.3 3-1.5 3.8-0.8 4.4 0.3 5.1 1.8 3.9 1.2 4.1 0 0.2-0.3 3.7 0 0.3-3.1 0.5-1.2 0.5-0.6 0.2-3.2 0-1.3 0.4-3.6 2.2-1.4-0.9-0.8-0.3-0.7-0.1-0.7 0.3-0.7 0.4-0.8 0.3-1.2-0.7-0.8 0.1-2.6 0.7-8.8 0-1.2-0.2-0.7-0.4-0.4-1-0.3-1.1-0.4-1 0.3-0.9-0.1-1.4-0.5-1.4-0.7-0.9 0.4-0.1 0.1-0.2 1.8 0.2 1.5-0.7 1-1.3 0.4-1.6 0.8-1.2 2.5-2.2-0.3-0.7 0-0.4 0.2-0.2 0.4-0.2-0.1-0.1-0.2 0 0-0.1 0-0.3 0.4-0.1 0.2-0.2 0.1-0.3 0-0.6 0.2 0.5 0.1 0.3 0.3 0 0.3-0.4 0.3-0.5 0.4-1.3 0.3 0 0.2 0.4 0.2 0.3 0.3 0.2 0.4 0 0.7-0.2-0.1-0.4-0.2-0.4-0.2-0.3 0.6-0.6 1.4-0.6 0.6-0.5 0.5-0.7-0.1-0.2-0.5-0.2-0.5-0.6-0.1-0.6 0.1-0.4 0.4-0.2 0.7-0.1 0.4-0.4 0.4-0.7-0.1-0.7-1.2-0.7-0.5-0.6-0.6-1.4-0.1-1 0.8-1.6-0.4-0.3-0.7-0.2 0-0.5 0.9-1.4-0.6-1.1-0.1-1.1 0.2-1.2 0.5-1.4-0.7-1.1 0.5-0.5 3-0.3 0.8-0.4 1.3-1.2 1.3-0.8 0.3-0.3 0.1-0.3 0.2-0.2 0.5-0.1 2.4-2.6 0.5 0.7 0.9 0.5 1 0.2 0.9 0 0.6-0.7 0.4-1 0.3-1.4 0-1.3-0.2-1.3-0.8-3.1-0.2-2.3-0.3-1.1-0.5-0.9 0.3-0.7-0.2-1.6 0.2-0.8-0.1-0.3-0.1-0.5-0.1-0.4 0-0.5-0.9 1.4-0.5-0.5-2.1-1.2-2.7-2 0.4-0.8 0.2-0.9-0.8-0.2-0.8-0.4-1.9-0.4-1.2-1.2-0.9-0.3-1.2 0.1-0.5-0.7-0.3-1.2 0.1-1.4 0.7-1.6 2-1.7 4.9 0.2 2.2-0.7 0.7-0.8 0.4-1.2 0.2-1.2 0-0.4 0-0.4 0.1-0.4 0.2-0.5 0-0.4-0.1-0.2-0.6-0.4-0.1-0.2 0.2-0.4 0.3-0.3 0.4-0.3 1.3-1.5 0.8-0.5 0.9-0.1 4.4 0.7 0.9-0.1 0.5-0.3 1-1.1 0.6-0.1 0.5 0.2 0.8 0.8 0.6 0.1 0.4-0.2 0.4-0.4z" id="TR22" name="Edirne" fill="none" stroke="#000000" stroke-width="0.6" data-area-id="9" /><path d="M846.7 114.1l5.5-1.1 5.7-0.6 0.9-4.5 0.7-7.5 1.1-4.8 5.7-3 7.8-3.3 7.7-3.3 4.8-2.7 3.1-1.1-0.2 1.5 0.3 2 0.8 1.8 0.9 0.8 2 0.3 2.1 1.1 1.9 1.5 1.4 1.9 0.6 1.2 0.2 1.2 0.1 1.3 0.3 1.4 0.4 1.3 2 3.1 0.5 1.2 0.1 1 0.3 4.4-0.2 0.5-1 1.8-0.2 0.3 0.3 1.5-2 2.3-0.6 1.3 0 1.5-0.3-0.2-0.2-0.1-0.2 0-0.3-0.1 0.2 0.2 0.1 0.2 0.1 0.5-1.1 0.1-1.1 0.7-1.6 1.9 0.2 0.9 1 1.1 1.9 1.6 0 0.5 0 0.1-0.7 2.4-0.4 0.7-0.3 1 0.4 1 1.3 1.2 2.1 2.8 0.7 1.5 0.1 0.2-0.9 0.6 0.5 1.1 1.5 1.9 0.3 0.7-0.5 0.8-2.1 0.4-0.7 0.6 0.6 1.8-6.2 2.3-5.9 0.8-2.5 1.2 0 2.4-1.8 2.1-2.6-1.1-2.1 0.5-2.2-0.6-5.2-0.1-14.6 4.2-9.2-1.8-1.4-2.3-1.1-2.5-1.2-1.9-1.9-0.8-1-0.3-0.8-0.6-0.6-1.3-0.8-1.1-1.4-1-1.5-0.5-4.1-0.7-1.1-1.3-1-1.7-1.7-2 1.5-3.3 6.9-2.4 3-1.7 1.5-1.2 1.6-1.1 2-0.9 1.9-1.2-1.1-6.2 0.7-2.2 0.3-2.1z" id="TR36" name="Kars" fill="none" stroke="#000000" stroke-width="0.6" data-area-id="10" /><path d="M812.6 290.8l2.8 7.5 1.3 5.2-0.6 4-3.5 1.7-4.5 2.5-2 2.2 0.8 2.5 5.5 1.7 3 2.4 0.9 3.8-19.8 4.7-13.2 0.6-1-0.3-2.1-0.9-11.4-2.2-8.9 1.3-2.3 0.9-6.4 3.5-2.1 0.7-1.1 0-1.1 0.2-1 0.4-0.9 0.6-6.3 4.2-2.1-1.1-4.3-7.5 0.5-4.8-0.6-1.2-2.4-2.5-1.5-1.3-1.4-1.5-0.6-7 4.6-6 2.1-2 5.2-3.6 2.4-0.9 5.2-4.1 3.8-0.3 2.3-3 0.6-1.4 5.2-1.1 16.6 0.5 3-1.5 1.2 0 0.9 0.4 3.4 4.3 3.3 6.9 5.1 3.2 7.3-1.5 5.3-3.9 8.8-6.3z" id="TR47" name="Mardin" fill="none" stroke="#000000" stroke-width="0.6" data-area-id="11" /><path d="M726.3 311.1l0.6 7 1.4 1.5 1.5 1.3 2.4 2.5 0.6 1.2-0.5 4.8 4.3 7.5 2.1 1.1-3.4 2.3-1.8 0.9-1.8 0.3-1.7 0.6-4.7 2.8-10.2 3.9-15.3 2.9-9.6 1.9-2.6 0.1-7.3-2.5-2.5 0.2-1 0.3-7.7 0.3-3.4-0.4-2.9-1.5-1.3-1.5-5.1-5.3-2.3-1.3-9-2.7-3.2-0.4-1.6 0.2-3.2 1.2-4.6 3 0-0.1-0.2-0.5-0.1-0.8 0.1-0.8 0.4-0.3 0.5-0.2-0.2-0.5-0.8-0.9-0.2-0.6-0.1-0.6 0-1.5-0.2-0.5-1.3-1.2-0.7-0.8-0.1-0.5 0-0.9 0.6-1.4 0.1-0.7-0.5-0.3-0.7 0.1-1.1 0.6-0.4 0.1-0.4-0.3-0.5-0.5-0.4-0.3-0.6 0.3-0.6-0.6-0.1-0.8 0.3-1.7 0.1-1.4-0.1-0.6-0.3-0.7-0.8-1.3-0.3-0.8-0.2-0.9 0.2-1 0.4-0.4 0.4 0.1 0.3 0.7 0.3 0 0-1.3-0.3-0.9-0.6-0.6-0.7-0.5 0.6-2.1 0.2-0.6 0.4-0.3 0.4-0.2 0.2-0.2 0.4-1.5 0.5-0.8 1.6-1.6 2.1-2.7 0.7-0.6 0.8 0 0.8 0.1 0.8-0.1 0.7 0.5 0.5 0 1.4-1 0.6 0.8 0.9 0.4 2.1 0.5 0.2 0.2 0.1 0.5 0.2 0.1 0.2-0.1 0.1-0.1 0.1-0.1 0.2-0.1 0.2-0.3-0.1-0.7 0.1-0.8 0.4-0.3 2.1 0.3 0.7-0.3 0.3-1.4 0.5 0 2.8-1 1.5 0.6 5.8-1 1-0.6 2.8-3.1 0.6-1 0.5-0.3 2.3-2.4 10.5-1.6-2.3-1.8-0.9-1 1-0.6 0.1 0.2 0.6 0.6 0.2 0.1 0.4-0.1 0.3-0.1 0.3-0.1 0.2-0.1 0.2-0.2 0.2-0.5 0.4-0.3 0.8 0.6 0.4 0 0.4-0.2 0.3-0.3-1.2-1.3-0.4-0.3 0.6-0.7 1-0.2 1.1-0.1 0.9-0.2-0.6-0.9 0.1-1.5-0.5-0.5-0.6 0.1-1.3 0.9-0.7 0.2 0.4-0.9 0.5-0.8 0.7-0.5 0.7-0.2 0.4 0 0.9 0.3 0.3 0.1 0.3-0.5 0.1-0.5-0.1-0.4-0.3-0.3 0.6-0.9 0.3-0.8-0.1-0.7-0.4-0.9 2.3-0.8 0.6-0.4 0.5-0.9 0.2-2 0.2-0.9 0.6-0.7 0.8-0.4 2.9-0.9 1.9-1.3 3.7 2 3.8 0.7 2.9 0.1 2.6 1.2 2.8 3 3.1 2.6 1.5 0.8 1.6 0.5 1.8 1.7 2.3 1 0.5-0.7 0.4-0.8 1.4 0.6 1.2 1.1 0.8 0.5 0.9 0.2 0.7 1.5-0.3 6.5 0.7 4.5 0.4 1.7 0.2 0.9 1.7 4.9 1.6 3.1 2.2 2.5z" id="TR63" name="Sanliurfa" fill="none" stroke="#000000" stroke-width="0.6" data-area-id="12" /><path d="M608.6 352.8l-3.6 2.4-2-0.1-7.7-1.4-1.1 0.1-3 0.8-0.9-0.1-0.7-0.3-0.8 0-0.9 0.4-0.8 0.7-0.3 0.6-0.5 0.1-0.9-0.5-0.9-0.8-0.2-0.7 0.4-1.9 0-1.2-0.4-0.8-1.4-1.3-0.8-0.7-0.9-0.6-0.9-0.3-0.9-0.2-3-0.2-8.8-3.1 2.6-2.5 4-1.8 3.2-2.2 0.4-3.9 1.5-1.3 1.7 1 1.5 3.3 3.2 0.6 3.7 2.5 3.9 4 2 2.4 1.4-0.9 3.5 1.9 4.4 2.4 4 3.6z" id="TR79" name="Kilis" fill="none" stroke="#000000" stroke-width="0.6" data-area-id="13" /><path d="M633.2 306.9l-0.8 0.1-0.8-0.1-0.8 0-0.7 0.6-2.1 2.7-1.6 1.6-0.5 0.8-0.4 1.5-0.2 0.2-0.4 0.2-0.4 0.3-0.2 0.6-0.6 2.1 0.7 0.5 0.6 0.6 0.3 0.9 0 1.3-0.3 0-0.3-0.7-0.4-0.1-0.4 0.4-0.2 1 0.2 0.9 0.3 0.8 0.8 1.3 0.3 0.7 0.1 0.6-0.1 1.4-0.3 1.7 0.1 0.8 0.6 0.6 0.6-0.3 0.4 0.3 0.5 0.5 0.4 0.3 0.4-0.1 1.1-0.6 0.7-0.1 0.5 0.3-0.1 0.7-0.6 1.4 0 0.9 0.1 0.5 0.7 0.8 1.3 1.2 0.2 0.5 0 1.5 0.1 0.6 0.2 0.6 0.8 0.9 0.2 0.5-0.5 0.2-0.4 0.3-0.1 0.8 0.1 0.8 0.2 0.5 0 0.1-0.8 0.5-1.4 0.4-7.6 3.5-7.8 1.7-2.9 1.2-3.4 2.2-4-3.6-4.4-2.4-3.5-1.9-1.4 0.9-2-2.4-3.9-4-3.7-2.5-3.2-0.6-1.5-3.3-1.7-1-1.5 1.3-0.4 3.9-3.2 2.2-4 1.8-2.6 2.5-0.3-0.5-0.8-0.1-0.6-0.5-0.4-1.2-0.8-0.8-3.8-1.7-3.1-3.1 1.1-2.2 1.8-1.7 3.3-4.2 2.6-5.1 1.8-2.8 2.2-2.5 5.7-2.6 2.3-3.1 2.3 1.5 1.3 5.3 3.7 1.2 4.3-4.6 2.6-1.3 6-1.1 6.3-2.2 3-0.4 3 0.1 2-1.4 0.6-2.7-0.3-1.7 0.1-1.8 5.2-1.1 5.2 0.1 5.6 2.1 3.7 3.3z" id="TR27" name="Gaziantep" fill="none" stroke="#000000" stroke-width="0.6" data-area-id="14" /><path d="M557.8 335.8l3.1 3.1 3.8 1.7 0.8 0.8 0.4 1.2 0.6 0.5 0.8 0.1 0.3 0.5-0.5-0.1-0.4 0.1 0.2 1.4-0.6 1.2-0.7 1-0.6 1.2-0.2 1.3-0.1 1.1-0.1 1.2-0.6 1.4-0.6 2.5 0 2.6-0.2 2.6-1.4 2.2-0.3 0.9 0.2 1 0.9 3.2 0.2 0.5 0.4 0.3 0.7 0.3 0.2 0.2 0.3 0.4 0.1 0.4 0.1 0.4-0.1 0.5-0.3 0.9-0.2 0.5-0.2 0.1 0.4 0.4 1.6 0.2 0.8 0.3 0.5 0.6 0 0.1 0.5 0.8 0.3 1 0.2 0.9 0 1.3-0.2 0.5-3.4 0.6-0.9 0-3.6-0.6-0.9 0.2-0.5 0.2-0.2 0.3 0 0.5-0.3 0.3-0.4 0.2-0.2 0-0.3-0.1-1.3-0.2-0.7-0.2-0.6-0.4-0.6-0.7-0.5 0.5 0.7 0.8-0.1 0.5-0.4 0.4-0.3 0.5 0 0.8-0.2 8.5 0.1 1.7-1 0.3-1.9-0.7-0.9 0.4-0.4 2.1-0.8 0.1-1.1-0.3-1.5 0.6-1.1 1.7-0.3 4.1-0.5 1.7-0.1 0.1-0.8 0.1-2.8-2-1.4-0.7-1.5 0-0.7-0.2-0.5-0.5-0.1-0.7 0.1-0.7 0-0.8-0.6-0.7-0.9 0.2-1 0.3-0.9 0.2-0.5-0.1 0-0.1 0.6-0.8 2-3.6 0.5-0.4 0-1.1-1.3-4-3.4-5.6-0.6-0.8-0.6-1-0.5-1.8-0.7-0.8-0.8-0.7-0.5-0.7-0.6-1.4 0.1-0.9 1.3-1.9 0.4-0.5 0.5-0.3 0.5-0.2 0.5 0 0.3-0.2 0.5-1.5 0.4-0.4 0.8-0.4 0.5-0.4 0.2-0.5 0.3-1.3 0.5-0.3 0.3-0.3 0.3-0.3 1.9-0.7 0.4-0.2 2.2-2.8 0.4-0.6 0.5-0.1 5.1-3.2 0.7-0.2 0.5-0.5 0.6-1 0.5-1.2 0.2-0.9 0-0.8-0.2-0.6-0.3-0.5-0.2-0.6 0-0.4 0-3.7-0.1-1-0.5-1-2.8-4-1.6-1.6-1.8-1.3-1.8-0.5-1.7 0.7-1.6 1.4-0.9 1.1-0.7-1.2 0-2.5 3.9-4.5 0.9-0.5 1 0.2 1 0.4 2.1-0.4 2 0.6 1.9 0 2.3-0.6 2.1 0.7 1.6 1.7 1.8 1.1 2.4 0.1 2.4-0.3z" id="TR31" name="Hatay" fill="none" stroke="#000000" stroke-width="0.6" data-area-id="15" /><g data-area-id="16"><path d="M163.8 57.8l0.1 0 2.2-3 1.4 1.3 7.2 4.6 10.3 4.4 14.6 7 4.7 1.1 0.2 0.1 0.1 0.1 0.2 0.2 0.3 0 0.3-0.1 0.3-0.6 0.4-0.1 1.1 0.1 1.2 0.5 0.7 0.7-0.4 1.6-0.7 1.1-0.8 1.1-0.8 0.5-0.6 0.2 0.2 0.4 0.4 0.5 0.2 0.5 0.3 0.4 0.1 0.1 0.3 0.2-0.1 0.4-0.2 0.3-0.1 0-0.2 1.2-0.3 1.2-0.5 0.9-0.5 0.8-0.4 0.3-0.8 0.3-0.4 0.3-0.4 0.6-0.1 0.3 0.1 0.3 0 0.2 0.2 0.3-0.1 0.3-0.2 0.4-0.2 0-1.1-0.1-0.4-0.3-0.2-0.1-0.3 0.2-0.4 0.6-0.2 0.1-0.5 0.1-0.9 0.6-1.9 0.4-0.4 0.2-0.3 0.2-0.2 0.3-0.3 0.2-0.5 0.1-1.2 0-0.6-0.2-0.2-0.4-0.5-0.5-1.2 0-5.7 0.7-1.4-0.6 0.4-2-0.6-0.6-0.3-0.2-0.4-0.1 0.3-1.4-0.5-1.3-1-0.8-1.1-0.3 0.2 0.9 1.1 1 0.3 1.1 0 0.6-0.1 0.9-0.3 0.9-0.6 0.6-1.3-0.2-2.5-2.5-1.2-0.7-1.6-0.3-3.3-1.2-1.6-0.2-1.6 0-0.4-0.2-0.5-0.6-0.4-0.1-1.8 0.4-0.9 0-0.3-0.2-0.5-3.5-0.7-4.8 0.7-3.8 1.4-5.2-0.5-4.2-1.3-4.5z" id="TR34" name="Istanbul" fill="none" stroke="#000000" stroke-width="0.6" /><path d="m52.2 38.9l-0.6-0.4-1 0.2-0.9-0.9-2.7-1.3-1-0.8-1-1.2-0.9-0.8-2.7-1.5 0.2-0.1 0.1 0 0-0.1 0.1-0.2-0.6-0.3-0.2-0.6-0.2-0.9-0.3-0.8 0.8-0.5 1-1.1 0.8-1.3 0.6-2.4 0.6-0.9 0.1-0.8-1-0.7 1.1-1.7 1.8-2 1.9-1.4 1.4 0.3 0.3 0 0.5-0.7 0.7-0.1 8.9 1.7 9.5 2.2 12.6 1.9-1 0.5 0.5 1.9 0.2 2-1.4 3.2-2.5 1.4-3.1 1.2-2.7 1.9-0.5 1.5-0.8 1.5-1.7 0.2-1.4-1.2-1.4-3.1-2.3-1.9-2.5-0.2-2.1 1.5-2 2-1.1 0.6-2.5 2.1-1.6 2.1z" id="TR34" name="Istanbul" fill="none" stroke="#000000" stroke-width="0.6" /></g><path d="M99.9 68.1l7.2-1.6 7.7-0.6 5.5 0 2.7 1.8 2.1 2.8 2.6 1.7 3.1-0.8 2.7-2.1 1.7-3.5 2.3-3.4 4.6-1.4 5.2-1.2 8.2-1.1 8.3-0.9 1.3 4.5 0.5 4.2-1.4 5.2-0.7 3.8 0.7 4.8 0.5 3.5-0.4-0.2-2.3 0.8-0.4 0.3-0.4 0-2.6 1-0.7 0.2-0.9 0.5-0.7 0.5-0.5 0.5-1.1 1.8-0.3 0.8 0.1 0.5-0.9 0.2-3.8-0.4-0.7-0.5-0.7-0.6-0.8-0.4-1.8-0.6-1.8-0.1-10.2 1.5-1.4 0.9-1.1 2.1-1.2 5-1 1.9-4.5 4.4-2 3.6-4.3 3.2-0.2 0.3-0.5 0.7-0.2 0.3-0.5 0.1-1.2 0.2-1.3 0.9-2.2-0.1-1 0.1-0.8 0.7-1.4 2-0.6 0.4-1.2 0.1-1.5-4.6 0-5-6.9-0.7-1.2-4.1-1.8-3.9-0.3-5.1 0.8-4.4 1.5-3.8 2.3-3 0.7-3.8-0.3-8.8-0.6-1.1z" id="TR59" name="Tekirdag" fill="none" stroke="#000000" stroke-width="0.6" data-area-id="17" /><g data-area-id="18"><path d="M98.5 110.3l0-0.3 0.3-3.7 0-0.2 6.9 0.7 0 5 1.5 4.6-0.6 0.1-1.9 0.6-2.7 1.7-0.7 0.7-0.9 0.6-2.9 0.4-0.9 0.5-1.5 1.4-0.7 0.3-0.5 0.3-0.4 1.9-0.5 0.8-1.6 0.8-0.3 0.5-0.1 1-0.3 1-0.7 0.9-2.6 2.4-0.3 0.2-1.4 0.3-0.6 0.6-1 1-0.1 0.2-0.2 0.3-1.2 1.5-0.9 0.7-1.1 0.6-1.1 0.6-1 0.1-0.6 0.6 0.1 1.1 0.6 1.2 0.7 0.5-2.3 2.2-0.7 0.5-1.9 1.1-1.4 1.4-0.6 0.3-2.5 0.9-0.5 0.1-0.5-0.4 0.1-0.7 0.4-0.7 0.3-0.4 0.8-0.6 0.5-1.3 0.4-1.3 0.2-0.6 2.2-3 0.6-2.2-0.3-1.7-0.9-1.4-1.4-1.1 0.5-0.4 0.2-0.4-0.3-0.3-0.6-0.1-0.2-0.3 0.4-0.6 0.7-0.6 0.3-0.1 0.5-0.5 2.5-0.9 0.9 0 0.7-1.3 2.4-1.5 2.2-1.9 2.8-1 2.1-1.8 1.4-0.9 1.4-0.7 1.3-0.3 2.3 0.3 0.6-0.3 0.7-0.7 1-1.6 0.6-0.7 1.2 0.5 1.5-0.5 1.3-1.1 0.6-1.3-1.4-3.1-0.4-0.6-0.5 0.1z" id="TR17" name="Çanakkale" fill="none" stroke="#000000" stroke-width="0.6" /><path d="m-5.4 68.8l-10 1.9-1 0.4-0.5 0.5-0.5 0-2.1 1.2-0.4 0.3-0.5 0-2.5-0.5-0.5 0.1-0.7 0.3-0.5 0.1-0.4 0.5-0.1 0.2-0.1 0.3-0.3-0.2-0.5-0.4-3.8 1-1.9 0-1.8-1-0.2-1.3 1.2-3.2 0.7-3.1 1.8-1.7 0.4-1.4 0.3-3.4-0.2-0.7-0.9-1.7-0.2-0.8 0.1-0.6 0.2-0.2 0.2-0.1 0.2-0.4 0-1.4 0.2-1.7-0.2-0.5-0.7-0.2 0.3-0.7 0.7-3.1 0-0.3-0.3-1.3 0-0.5 0.1-0.6 0.4-0.8 0.1-0.5 0.2-0.6 1-1.7 0.4-0.5 2.6 0.9 0.7-0.5 1.6-0.7 0.5-0.3 2-2.1 0.4-0.7 0.2-0.5 0-0.8 0.2-0.4 0-0.2 0-0.3 0-0.2 0.1-0.1 0.6 0 0.2-0.1 0.2-0.1 0.3-0.8 0.2-1.2 0-1.1-0.3-1 0.3-0.9 0.2-0.4 0.3 0 0.7 0 0.6-0.1 1.2-0.6 1.6-0.5 0.9-0.7 2.1-2.8 0.4-0.3 0.5-0.1 0.6-0.4 0.6-0.5 5.1-6.2 1-0.8 1.9-0.1 4.1 0.3 1.7-0.4 0.5 0.2 1.2 0.7 2.7 0.2 1.1-0.2 1.3-1.1 1.2-1.5 1.4-1.2 2.2-0.1 1.6 0.4 1.9 0 1-0.2 1.6-1 0.8-0.1 0.7 0.7 0.5 0.9 0.7 1.9-0.6 0.4-0.3 0-0.3-0.3 0 0.1-0.4 0.2 2.1 2.3 2.6 1.7 2.8 1.3 3.4 0.8 1.3 0 0.5-0.1 0.5-0.3 0.2 0.5-0.5 2.8-2.3 1.3-3.3 3.5-0.8 0.3-0.5 0.4 0.9 1.9 1.9 0.8 0.8 0.1 0.2 0.4-0.3 1.2-0.6 2.1-0.2 1.6-0.5 1.4-0.4 0.5-0.5 1 0.9 1.4 0.8 0.6-0.3 2.5-0.8 2.6-1 2.3-1.9 1.4-2 0.9-1.9 1.3-2 0.8-3.5-1.1-3.5-0.6-1.3 0.7-1.5-0.2-2.2 0-2 1.6-3.5 1.5-1.7 1.5-2.1 0.6-4.3-0.5-1.9 0.4-1.5 4.9 0.1 4.9z" id="TR17" name="Çanakkale" fill="none" stroke="#000000" stroke-width="0.6" /><path d="m-28.8-17.7l0.8-0.4 0.3 0.6-0.1 2.2-0.3 0.9-0.7-0.1-1.6-1.1-1.4-0.6-0.6-0.5-0.3-0.8 0.4-0.5 0.8-0.1 1.7 0 0.3 0 0.3 0 0.2 0.1 0.2 0.3z" id="TR17" name="Çanakkale" fill="none" stroke="#000000" stroke-width="0.6" /><path d="m-2.3-20.4l0 1.3-1 0.6-1.1 0.4-3.2 0.5-2.1 0.9-4.3 0.6-0.9 0-1.2-0.4-0.6-0.3-0.2-0.4-1.9-0.7 0-0.3 1-1.8 1.6-1.6 1.9-1.3 3.2-0.6 4.1-1.5 0.6-0.1 0.6 0.1 0.3 0.3 0.3 0.4 0.3 0.4 0.7 0.1 0 0.5-0.1 0.5-0.1 0.8 0 0.8 0.2 0.4-0.4 1 0.5 0.3 0.8-0.3 0.7-0.6 0.3 0z" id="TR17" name="Çanakkale" fill="none" stroke="#000000" stroke-width="0.6" /></g><path d="M783.2 69.9l0.1 0.2 1.3 3.3 0.4 2.5 0.9 2.1 0.9 0.9 0.9 0.6 0.6 1.1 0.5 1.1 1.9 0.9 1.4 1.6-1.3 2.9-2.6 1.7-0.7 1.3-0.4 1.3-1 0.9-1.1 0.6-4.5 5.3-0.7 2.5-3.6 2.1-5.1 4.4-2 0.7-2.1 0-1.7 0.7-1.4 3.6-2.9 0.8-1.9 0.2-1.9 0.6-7.7 3.8-0.7-3.9 0.6-4.3-3-7.6-0.5-4.4-1.2-4.2-1.7-3.9 5.3-3.6 1.7 0.8 1.4 0.1 1.3-0.4 1.5-0.9 1.8-1.6 0.6-0.1 1.5-0.2 0.7-0.3 0.6-0.4 2.8-3.8 3.4-2.5 0.5-0.2 0.7 0.2 2.1 0.7 1.2-0.2 1.8-1.3 0.7-0.3 1-0.1 1.1-0.4 1.1-0.5 0.9-0.7 1.8-2 1-0.7 1.2-0.3 1.3 0 0.8-0.3 0.4-0.4z" id="TR53" name="Rize" fill="none" stroke="#000000" stroke-width="0.6" data-area-id="19" /><path d="M743 89.3l1.7 3.9 1.2 4.2 0.5 4.4 3 7.6-0.6 4.3 0.7 3.9-0.9 0.2-1.9 0.6-4.9 0-2.4 0.4-2.3 0.8-2.1 0-3.9-1.3-4.1-0.1-1.9-1.1-2.9-3.3-1.5-0.5-0.3 0.2-0.6 0.6 0.3 1.5-0.7 0.8-1 0.1-2.3-3.9-3.3-2.2-1.4 1.1-0.6 2.6-0.7 0.8-1 0.2-2.8-0.3-11.1-4.5-3.2-3.3-0.7-3.7-2-1.2-0.8 1.1-1 0.9-1-0.1-0.9-0.7-0.8-2.4-0.4-5.8 0.1-3.1 1.3-7.6 0.4-0.4 0.6-0.1 1.5 0.1 0.9 0.3 1.5 1.3 1.1 0.1 0.8-0.2 1.2-0.9 1-0.1 0.6-0.2 2.5-1.6 0.3-0.2 0.2-0.3 0.2-0.2 0.6-0.2 3 0.8 0.7 0.6 1.2 1.7 2.8 2.4 1.8 1.1 1.9 0.4 0.9-0.4 1-0.4 1-0.2 1.2 1 0.6 0 1 0 0.4 0.1 2.9 2.3 0.8 0.4 0.9 0.2 0.8-0.6 3-1 1.1-0.2 2.8 2.6 1.3 0.9 2 0.4 0.8-0.1 1.4-0.6 1.1-0.3 1.7-0.6 1.1-0.8 2.2-0.6 2.4-1.6z" id="TR61" name="Trabzon" fill="none" stroke="#000000" stroke-width="0.6" data-area-id="20" /><path d="M685.8 84.4l-1.3 7.6-0.1 3.1 0.4 5.8 0.8 2.4-5.7 0.7-0.3 0.7-0.2 0.9-0.9 0.5-1.2 0.3-1.4 1.2-1.5 1-0.6 1.6 0.6 1.9-0.9 1.7-1.4 1.5-0.5 0.7-0.1 0.5-0.3 2.8 0.1 2.2 1.3 1.6 5.6 1.4 1.3 1.1 1.3 1.3 1.1 0.3-0.3 2.3-1.4 1.2-4.8 2.6-1 1.3-0.1 2.1 0.2 2.1-0.2 2.2 0.4 2.2 1.3 1.7-0.4 2-1.9 0.9-4.2 0.3-2-0.1-4.8-2.4-5-1.6-4.8 1.2-3-1.8-2.9-2.2-2.7-1.4-1.7-2.6 0.1-3.5-3.9-14.9-4.5-5.1 0.2-1.7 0.6-1.2 0.2-2.1-0.2-2.1 0.2-2.1-0.2-2.1-0.8-1.8 0-2 0.8-1.5 1-1.2 0.7-1.9-0.1-2.2 0-0.2 2.3 0.3 1.9 0.7 1 0 2.1-0.6 0.9 0.2 2.1 1.9 1 0 1.8-0.6 1.8 0.5 1.2 0.2 0.5-0.5 3.6-0.2 0.7-0.5 1.8-1.7 0.6-0.4 1.5-0.5 0.6 0.1 0.3 0.2 0.8 1.1 0.3 0.4 0.5-0.3 0.9 0 0.5-0.1 0.3-0.3 0.4-0.4 0.5-0.4 0.6-0.2 0.9-1.2 0.2-0.3 0.2-0.2 1.1-0.4 3.3-0.7 0.8-0.5 0.7-0.7 0.9-0.3 5.5 0 3.8-0.9 0.4-0.3 0.8-0.6z" id="TR28" name="Giresun" fill="none" stroke="#000000" stroke-width="0.6" data-area-id="21" /><path d="M636.7 91.6l0 0.2 0.1 2.2-0.7 1.9-1 1.2-0.8 1.5 0 2 0.8 1.8 0.2 2.1-0.2 2.1 0.2 2.1-0.2 2.1-0.6 1.2-0.2 1.7 4.5 5.1-1.4 1.2-1.6 0.8-2.2 0.2-1.9 0.4-0.5 0.8-0.1 1.8 0.5 0.7-0.2 1.1-1 0.6-4-0.2-1.7 1.3-1.4 1.9-1.4 1.1-1.7 0.2-3.6-2.9-2.6-5.1-0.9-3.8-1.6-3-6.4-0.4-10.9-7.6-3.1-0.3-3.3 0.5-3.4-0.3-3.1-1.3-2.5-1.5-3.9-1.4-2.7-1.6-2.1-0.5-0.6-0.4-0.5-1.9 0.8-1.6 1-0.3 0.9-0.5 2.1-0.2 1.9-0.6 1.7-1 0.7-0.6 1.9-2.1 3.8-2.1 2-3.9 2.7-2.8 2.5-3.5 0-0.3 5.3-0.1 1.7 0.5 1.1 1 0.5 0.3 1 0.3 1.2 0.1 0.8 0.3 1.1 1.3 0.8 0.6 2 0.7 0.2 0.3 1.1 1.2 0.9 0.4 1.9-0.2 0.8 0.2 0.3-0.3 0.6-0.3 0.4-0.3 0.3-0.5 0.6-1.6 0.6-1.1 0.7-1 0.8-0.8 0.9-0.6 0.4 1 0.8 0.6 0.9 0 0.8-0.7 0.3 0.4 1.2-0.2 0.1 3.9 0.8 1.1 2.5 1.2 0.6 0.5 0.5 0.7 0.8 1.4 1.9-0.8 2.2 0.3 5.8 2 0.5 0.1z" id="TR52" name="Ordu" fill="none" stroke="#000000" stroke-width="0.6" data-area-id="22" /><path d="M591 79.7l0 0.3-2.5 3.5-2.7 2.8-2 3.9-3.8 2.1-1.9 2.1-0.7 0.6-1.7 1-1.9 0.6-2.1 0.2-0.9 0.5-1 0.3-0.8-1.6-1.7-1.1-2.5-0.1-0.3-0.2-0.3 0.4-1.6 0.8-5.2 1.3-5.1-3.7-0.8-1.4-0.6-1.4-1.3-1.5-1.7-0.6-1.9 1.2-0.9 2.9-1.4 2.5-2.2 1.5-1.7 1.4-2 0.5-3.7-1.8-6.3-0.1-1.8-0.3-3.6 0.2-1.6-0.4-1.6-2.8-6.9-5.3-1.6-0.9-2.9 0.5-14.7-4.2-1.8-0.4-3.7 0.4-0.7-2.3-0.3-2.5-0.6-2.3-2.5-4.4 0.8-0.6 1.1-0.5 0.7-0.8-0.4-1.1 0.5-0.5 0.4-0.3 1.2-0.1 0.6-0.2 1.6-1.5 2.5-1 1.2-0.7 0.5-0.9 0.5 0.5 0.4 0.9 0.3 1.2 0.1 1.1 0.3 0.6 0.8 0.5 1.5 0.8-0.5 0.8 0.5 0.3 2.1 0.3 0.4 0.2 0.8 0.9 1.5 0.8 2.1 0.3 2-0.4 1.5-1 0.9-0.4 2.5 0.6 0.9-0.7-0.4-3.8-0.3-1.8-0.6-1.3-0.3-1.5 0.2-1.9-0.1-1.8-0.8-3.1 0.2-3.2 1.9-4.2 1.4 0.4 2.2 0.3 2.1-0.2 1-0.4 1.8-1.1 2.9-0.5 5-2.2 1.2-0.2 1.1-0.3 1.9-1.6 1.1-0.3 0 0.5-0.2 0.4-0.3 0.3-0.4 0.4-0.5 0.2 0.1 0.9-0.9 2 0.2 1.1 0.4 0 0.1-1.6 0.4-1.4 0.6-1.1 0.7-0.8 0.5-0.4 0.3-0.1 2.8 2.7 0-0.9 0.4 0 3.5 4.7 0.7 1.9 0 2.5-0.2 0.7-0.4 1 0 0.3-0.1 2.1 0.2 1 0.5 1.1 2.1 2.6 1.2 0.9 1.6 3 0.7 0.6 2.4 1.3 1.4 0.3 0.2 0.3 0.2 0.5 0 0.7 0.1 0.7 0.4 0.3 0.6 0.2 0.5 0.3 0.3 0.3 0.4 0.7 0.3 0.3 0.5 0.1 0.8 0.2 0.5 0.3 0.8 0.4 1.2-0.3 2-1.1 2.5-2.3 0.4-0.6 0.2-0.6 0.7-1.1 0.1-0.4 0.1-0.2 0.3-1.3-0.1-0.1 0.7-0.5 0.6 0 0.8 0.3 1 0.2 4.1 0 3.8 1 7 3.5 1.4 1.3 0.8 2 0.1 2.8 0.3 1.1 0.8 0.4 1 0.3 1.8 1.1 0.9 0.4 0.8 0z" id="TR55" name="Samsun" fill="none" stroke="#000000" stroke-width="0.6" data-area-id="23" /><path d="M512.6 48.4l-1.9 4.2-0.2 3.2 0.8 3.1 0.1 1.8-0.2 1.9 0.3 1.5 0.6 1.3 0.3 1.8 0.4 3.8-0.9 0.7-2.5-0.6-0.9 0.4-1.5 1-2 0.4-2.1-0.3-1.5-0.8-0.8-0.9-0.4-0.2-2.1-0.3-0.5-0.3 0.5-0.8-1.5-0.8-0.8-0.5-0.3-0.6-0.1-1.1-0.3-1.2-0.4-0.9-0.5-0.5-0.5 0.9-1.2 0.7-2.5 1-1.6 1.5-0.6 0.2-1.2 0.1-0.4 0.3-0.5 0.5 0.4 1.1-0.7 0.8-1.1 0.5-0.8 0.6-0.1 0.4-0.1 1.1-0.1 0.5-0.2 0.3-0.9 0.8-1 1.2-5.4-1.7-0.8-0.6-0.5-0.9-1.2-0.9-1.4-0.3-1.6 0.4-1.6-0.3-0.8-0.9-1-0.2-1.8 0.1-1.2-1.6 0.3-8.3-0.5-1.2-0.3-1.2 0.5-2.4 0.9-2.2 1.4-1.4 1.5-1 1.7-4.3-2.7-3.5-3.1-0.9-5.8-0.3-2.9-0.8-2-0.3-1.7 0.1-3.1-1.2 0.1-2.1 2.4-2.9 1.3-3.7-0.2-3.6 5.5 0.7 5.4-1.6 1.8-0.1 0.7 0.2 1.4 0.7 1.6 0.6 6.3 0.4 2.5-0.3 2.5-0.8 0.8-0.4 1.7-1.4 1.8-1.1 1.4-1.8 1.1-2.1 0.3-1.9 0.6 0.2 1.4 0.3 0.6 0.4 0.1-0.4 0.2-0.1 0.3 0 0.4 0 0.3 0.8 0.5 0.5 0.4 0.4-0.3 0.5 0 0.4 1.8 1.4 1.1 0.5 1.4-0.1 0.5-0.3 0.8-0.8 0.5-0.2 0.7 0.1 0.4 0.3 1 0.9 0 0.4-2.5-0.3-1.2 0.2-1 0.8-0.5 0.9-0.4 1.4-0.2 1.5-0.1 1.2 0.3 1 1.3 2.4 1.4 1.9 2.6 2.1 0 0.5-0.7 0 0.3 0.8 0.5 1 0.6 0.9 1.4 0.7 1.4 1.7 0.7 0.6 2.8 1.1 2.1 0.4 0.8 0.5 1.5 1.4 1.7 1 0.7 0.3z" id="TR57" name="Sinop" fill="none" stroke="#000000" stroke-width="0.6" data-area-id="24" /><path d="M451.6 28.1l0.2 3.6-1.3 3.7-2.4 2.9-0.1 2.1 3.1 1.2 1.7-0.1 2 0.3 2.9 0.8 5.8 0.3 3.1 0.9 2.7 3.5-1.7 4.3-1.5 1-1.4 1.4-0.9 2.2-0.5 2.4 0.3 1.2 0.5 1.2-0.3 8.3-2.5 0.6-1.7 2.4-1.3 3.4-1.1 1.3-2.2 2-1.7 4.2-1.6 2-0.5 1.2 0.9 2.4 1 0.4 1.6 1.7-1.2 3.1-6.7 2.8-4.2 0.9-1.9-0.1-2-0.4-1.6-1.2-1.5-1.4-2.8-1-1.7-3 0.5-1.9 1.2-1.4 1.5-2-0.5-2.5-0.7-0.4-1.6 0.6-7.7 4.1-3.7 0.7-5 3-1.8 0.6-2.2-0.7-1.8-2.1-4.3-2.9-6.1-0.6-0.7-0.6-1.1-1.4-0.4-0.8-1-1.5-2.5-1.1-2.7-0.4-0.9-6.8 0.4-2.1 2.2-3 2.5-2.5 4.6-0.9-1.3-3.1-1.3-5.6-3.5-2.6-3.5 1.2-2.9 0.4-1.6-1.8-0.4-4.5 3-2.2-1.7-4.7-1.3-2.8-0.5-3.8 1.4-0.4 0.8-0.5 0.5 0.3 3.4-0.8 1.7-0.8 2.1-1.5 7.5-2.5 7.6-4 1.7-0.1 3.5 0.6 5 0 1.1 0.2 2.4 0.9 10.1 1 0.9-0.3 1.3 0.5 6.2-0.5 10.1 1.5z" id="TR37" name="Kastamonu" fill="none" stroke="#000000" stroke-width="0.6" data-area-id="25" /><path d="M384.3 34.5l0.5 3.8 1.3 2.8 1.7 4.7-3 2.2 0.4 4.5-4.5 4.3-2.7 0.8-2.1 4.6-5.7 4.8-5 1.3-5.2-0.2 1-5.4-1.8-4.4-0.9-3.3-2.9-1.3-2.7-2.7 1.4-0.8 0.7-1.6 3.1-3.5 0.3-0.3 0.7-1.4 1.6-0.5 2.6-0.1 0.1-0.4 0.4-0.2 0.5-0.3 0-0.4 0.2-0.3 0.2-0.1 0.3 0.1 0.4 0.6 0.2 0.1 0.8-0.4 1-1.2 0.7-0.6 3.3-1.7 0.6-0.4 0.6-0.3 0.7-0.1 0.7 0.3 0.6-0.9 1.1-0.8 1.2-0.3 1.2 0.5 0.7 0 2.9-1.1 0.7-0.4 0.7 0.1 1.4-0.1z" id="TR74" name="Bartın" fill="none" stroke="#000000" stroke-width="0.6" data-area-id="26" /><path d="M352.7 51l2.7 2.7 2.9 1.3 0.9 3.3 1.8 4.4-1 5.4-2.5 3.5-1.7 2.1-0.8 3.3-1.5 5.1 0 5.6-10.2-0.3-3-0.8-3.5-0.3-11.5-1.1-8.2-4-1.8-1.8 1.6-1.5 0.6-0.9 0.4-0.8 0.2-1 0.1-1.4 0.1-0.5 0.4-1.3 0.1-0.8-0.2-0.3-0.9-0.6-0.2-0.5 0.5-0.8 1.1-0.4 2.2-0.2 0.2-0.2 0.8-1.2 0.2-0.3 0.5-0.1 7.2-2.8 10.1-6.8 5.8-2.8 1.7-1.4 0.4-0.3 4.5-1.5z" id="TR67" name="Zinguldak" fill="none" stroke="#000000" stroke-width="0.6" data-area-id="27" /><path d="M315.3 79.4l1.8 1.8 8.2 4 11.5 1.1-0.8 5.5-2.3 2.7-4.4 1.1-6.1 1-2.3 1.8-0.2 3.3-1.8 4.5-3.6 2.8-4.6 0.5-5.4-2.3-7.7 0.3-3.9-1.4 1-2-0.9-1.4-0.5-1.7 0.7-1.7-0.2-1.9-0.8-1.7-0.3-1.9 1.6-3.7 2.8-2.6-0.1-1.3-0.3-1.9 0.1-0.6 6.4-0.1 1.2-0.7 0.4-0.2 0.6 0.1 1 0.3 0.5 0 2-0.4 0.3 0.1 0.4 0.3 0.3 0 0.3-0.1 0.1-0.2 0.1-0.3 0.3-0.2 2-0.8 1.5-1 1.1-1.1z" id="TR81" name="Düzce" fill="none" stroke="#000000" stroke-width="0.6" data-area-id="28" /><path d="M296.8 83.7l-0.1 0.6 0.3 1.9 0.1 1.3-2.8 2.6-1.6 3.7 0.3 1.9 0.8 1.7 0.2 1.9-0.7 1.7 0.5 1.7 0.9 1.4-1 2-3 2.3 0.1 2.1 0.4 1.9-0.6 1.9-3.1 1.5-3.3-0.2-1.9 2.9-1.3 3.9-0.8 0.4-0.6 0.7 0.3 1.6 1 1.2 1.1 2.2-0.9 2.3-2.5-0.6-3.5 0.1-0.8-0.7-1.2-1.8-1.5-0.9-1.8 0-1.7-0.5-2.1 0.2-6.6 1.7-4.2-1.3-1.7-1.9-1.9-1.6-1.7-2.5-1.3-2.8-0.5-1.3-0.2-1.5 3.3-0.3 1.5-0.5 1.5-0.9 3.1-0.7 2.8-1.9 1.9-3.9 1.9-9.3 3.1-3.3-0.6-0.4-0.6-0.2-0.4-1.4 0.9-0.5 1.8 0.4 1.6 0.7 2.6-0.1 0.9-0.1 0.3-2.2 1.1-1.9-0.3-2.1-3.4-0.6-0.9-3.2 1.5-3.9 0.3-0.9 12.8 3.1 1.6 1.4 0.7 0.4 4.1 0.8 5.8-0.2z" id="TR54" name="Sakarya" fill="none" stroke="#000000" stroke-width="0.6" data-area-id="29" /><path d="M216 96.7l1.6-2.1 2.5-2.1 1.1-0.6 2-2 2.1-1.5 2.5 0.2 2.3 1.9 1.4 3.1 1.4 1.2 1.7-0.2 0.8-1.5 0.5-1.5 2.7-1.9 3.1-1.2 2.5-1.4 1.4-3.2-0.2-2-0.5-1.9 1-0.5 12 0.4 1.3-0.2 0.7-0.3 1.2-0.8 0.6-0.2 0.4-0.4 0.4-0.7 0.3-0.5 0.4 0.3 0.5-0.5 0.6-1 0.5-0.3 0.6 0.5 2 0.5 1.6 1.2 2.8 0.7-0.3 0.9-1.5 3.9 0.9 3.2 3.4 0.6 0.3 2.1-1.1 1.9-0.3 2.2-0.9 0.1-2.6 0.1-1.6-0.7-1.8-0.4-0.9 0.5 0.4 1.4 0.6 0.2 0.6 0.4-3.1 3.3-1.9 9.3-1.9 3.9-2.8 1.9-3.1 0.7-1.5 0.9-1.5 0.5-3.3 0.3-6.5-2.3-3.3 0.6-8.8 3.3-2.7 0.2-2.7-0.9 0.4-2.4 0-5.6 0.4-0.3 0.6-0.2 0.5-0.3 0.2-0.5 0.2-0.4 0.5-0.4 0.5-0.2 0.5-0.1 0.5 0.1 0.8 0.4 0.7 0.7 0.3 1.2 0.5 0 9.2-2.1 5.4-0.3 1.7 0.8 1 0 0.7-1.1-0.5-1.5-1.8-0.3-3.9 0.5-0.3 0.1-0.3 0.1-0.4 0.2-0.6 0-0.5-0.3-1-0.8-0.3-0.2-0.7-0.2-1.7-0.6-1-0.1-11.2 0.5-0.9 0.3-0.8 0.6-0.8 0.3-0.9-0.4-0.4-0.5-0.2-0.6-0.3-0.4-0.5-0.2 0.2-0.1 0.1-0.2 0.2-0.1 0.2-0.1-0.2-0.6-0.3-0.4-0.3-0.4-0.5-0.2-0.2 0.3-0.5-0.3-0.4 0.3-0.5 0.2-1.3 0.3 0-0.4 0.5 0 0.3-0.3 0.1-0.4 0-0.6 0.5 0.3 0.2 0.1 0-0.2 0-0.2 0.1 0 0.2 0-0.5-0.9-1-1.1-0.4-0.4z" id="TR41" name="Kocaeli" fill="none" stroke="#000000" stroke-width="0.6" data-area-id="30" /><path d="M224.3 108.3l0 5.6-0.4 2.4-3-0.6-3 3.2-3 0.6-7.3-3.2-1.4 0.2-3.3-0.8 0.1 6.8-0.5 0.2-2.5-0.6-4.2-2.7-2.6-0.6 0.9-1.9 1.6-1.1 3.4-1.3 1.4-0.9 2-2.1 0.8-0.3 14-1.3 2-0.7 1.9-1.1 1-0.8 0.3 0 0.4 0.3 0.3 0.6 0.5 0.4 0.6-0.3z" id="TR77" name="Yalova" fill="none" stroke="#000000" stroke-width="0.6" data-area-id="31" /><path d="M247.9 115.4l0.2 1.5 0.5 1.3-2.5 1.4-1.1 0.8-0.9 1-0.9 1.7-0.2 2-0.5 1.7-0.6 1.5 0.2 1.9 1.1 1.4 0.2 1.7-0.8 1.7-4.6 4.9-1.3 6.2 0 3.1 2.5 3.6 1.3 1 0.6 3.1-2.3 0.8-2.7-0.5-1.5 0.1-1.3 0.7-1.5 0.2-1.6-0.1-4.9-2-2.4 1.7-1 3.7-0.5 1.4-1 1-1.3 5-2.2 1.6-1 2.8-0.3 4.1-2.6 1.6-3.4 0.1-3.4-0.4-2.1-0.5-1.8-1.4-1.1-1.3-1.5-0.6-2.2-0.1-2.2 0.4-1.8-0.3-1.2-1.8-0.7-0.5-0.9 0-0.5-0.4-0.3-0.7-0.9-1.5-0.1-1.7 0.2-1.3-0.7-1-1.3 0.5-1 1.1-3.8-0.5-12.5-9.3-0.9-1.9-0.8-4.3-0.9-1.6-2.6-1.8-1.7-2.8-0.9-2.3-0.2-1.2 0.6-2.4 0.6-1 0.5-1.2-0.9-2-1.1-0.3-0.4-2.1 1.3-1.3 1.4-1.1 2.3-3.5 0.2-0.5 6.6-0.2 2.5 0.4 4.1-0.2-0.5 0.1-0.4 0.3-0.3 0.3-0.1 0.6 1.9-0.7 2.2-0.1 2.3 0.6 2.1 1.1 0.3-0.4 0.2 0.1 0.1 0.2 0.4 0.1 0.4-0.2 0.5-0.5 0.4-0.2 2.7-0.5 0.7-0.6 0.7-0.4 0.9 0.2 1.6 0.5 1.5 0.1 1.3 0.3 0.7 0.3 1.1 0.7 0.8 0.3 0.8 0.1 3.7-0.1 0.9-0.2 0.6-0.5 0.4-0.8 0.4-1.7 0.4-0.7 0.6 0.3 0.8-0.1 0.8-0.2 0.7-0.4-0.8-1.1-1.1-0.9-1.1-0.7-1.1-0.3-2.6 0-0.4 0.2-1 0.9-0.1-6.8 3.3 0.8 1.4-0.2 7.3 3.2 3-0.6 3-3.2 3 0.6 2.7 0.9 2.7-0.2 8.8-3.3 3.3-0.6 6.5 2.3z" id="TR16" name="Bursa" fill="none" stroke="#000000" stroke-width="0.6" data-area-id="32" /><g data-area-id="33"><path d="M93.1 179.1l-0.1-4.9 1.5-4.9 1.9-0.4 4.3 0.5 2.1-0.6 1.7-1.5 3.5-1.5 2-1.6 2.2 0 1.5 0.2 1.3-0.7 3.5 0.6 3.5 1.1 2-0.8 1.9-1.3 2-0.9 1.9-1.4 1-2.3 0.8-2.6 0.3-2.5-0.8-0.6-0.9-1.4 0.5-1 0.4-0.5 0.5-1.4 0.2-1.6 0.6-2.1 0.3-1.2-0.2-0.4-0.8-0.1-1.9-0.8-0.9-1.9 0.5-0.4 0.8-0.3 3.3-3.5 2.3-1.3 0.5-2.8-0.2-0.5 1.2-0.8 0.7-0.2 1.4 0.3 1.1 0.5 1.1 0.3 1.2-0.7 0.9 0.5 1.5 0.1 1.2-0.3 1.2-1.7 2.5-1.4 0.8-1-0.9-0.1-2.4-0.8-0.7 0.4-0.4 0-0.2-0.6-0.1-0.6-0.2-0.2-0.3 0-0.3-0.3-0.3-0.5-0.2-0.2-0.2-0.4 0-0.8-0.1-0.4-0.4-0.1-0.4 0-0.4-0.1-1.5-1.6-0.5-0.6 0-0.4 0.6-0.2 0.5-0.4 0.7-0.9 0.5-0.2 0.5 0.2 0.4 0.1 0.4-0.8 0.9 1.2 0.1 0.2 0.4 0.1 0.2-0.2 0.1-0.2 0.4-0.2 7.9 1.3 2.1 0.7 1 1.1-0.9 1.4-4.1 2.1-1.2 1.1 0.2 1.6 1.7 0.5 3.9-0.4 4-1.5 4.6-0.2-0.2 0.5-2.3 3.5-1.4 1.1-1.3 1.3 0.4 2.1 1.1 0.3 0.9 2-0.5 1.2-0.6 1-0.6 2.4 0.2 1.2 0.9 2.3 1.7 2.8 2.6 1.8 0.9 1.6 0.8 4.3 0.9 1.9 12.5 9.3 3.8 0.5 1-1.1 1.3-0.5 0.7 1-0.2 1.3 0.1 1.7 0.9 1.5 0.3 0.7 0.5 0.4 0.9 0 0.7 0.5 1.2 1.8 1.8 0.3 2.2-0.4 2.2 0.1 1.5 0.6 1.1 1.3-0.9 1.8-0.3 1.2 0 1.2-0.3 0.7-0.6 0.6-0.6 1.8-0.6 4.3-1.1 1.8-1.1 1.4-0.4 0.9-1.4 2.6-1.6 1.1-3.5 1.2-1.8 0.9-0.4 2.1 0.2 0.8 0.2 1.5-0.4 0.6-4.1-0.6-4.4 2.2-1.8 0.5-1.8 0.2-2-0.2-1.9 0.4-1.3 1.7-1.8 1.1-2.1 0.4-2 0.8-2.1-0.7-2.5-5.5-3.9-4.3-0.3-0.9-0.8-0.4-3.5 1.3-1.9-0.9 0.6-2.1 1.4-2.6-1.2-1.9-0.8 0-1.5 0.3-0.7-0.1-1.9-0.9-2-0.2-3.3 0.5-3.3-1-2.1-1.7-2.2-1-3.6 1.9-1.4-2.7-2.1-1.9-2.6-0.6-8.7 5.6-1.5 0.6-1.3 0.8-0.9 1.3-0.8 1.4-1 1-10.2 7.4-0.3-0.2-1-0.7-0.6-0.8 0-0.6-0.3-1.2-0.3-1.2-0.3-1-0.8-0.4-2.3 0.2-1.2-0.1-0.9-0.4 0.5-0.5 0.2-1.3 0.4-0.6 0.6-0.2 0.4 0.2 0 0.4-0.9 0.3 0 0.3 0.6 0 0.4 0.2 0.4 0.3 0.3 0.4-0.3-0.9 0.3-0.5 0.5-0.3 0.5-0.4 0.8-1.2 5-3.9-0.4-0.3-0.2-0.1 0-0.4 0.1-0.4 0-0.3-0.1-0.6 1.7-0.1 0.6-0.2 0.6-0.5-0.5-0.9 0.8-0.6 2.7-0.9 0.2-0.1 0-0.2 0.1-0.7 0.6-2.3 0-1.3-0.3-0.8-0.8-0.5-1.3-0.1-1.1 0.4-0.9 0.9-0.9 0.4-1.2-0.9-6.7 1.2z" id="TR10" name="Balikesir" fill="none" stroke="#000000" stroke-width="0.6" /><path d="m47.1-68.4l0.7-0.2 1.4 0.2 1.2 0.6 0.2 1.1-0.9 0.7-1.7 0.3-0.9 0.3-1.6 1.4-0.9 0.4-1.1-0.5-0.5 0-1-0.4-0.7-0.7 0.1-1.3-0.3-0.5-0.3-0.5 0.2-0.7 0.4-0.4 0.4-0.3 0.2 0.2 0.2 0.7 1.1-0.6 1.3-0.4 1.2-0.1 1.3 0.7z" id="TR10" name="Balikesir" fill="none" stroke="#000000" stroke-width="0.6" /><path d="m-0.6 12.1l0.3-0.1 0.2 0.2 0 0.5-0.5 0.1-0.7-0.4-0.8-0.1-0.8-0.1-0.7-0.5-0.1-0.7 0.5-0.4 0.4-0.8 0.4-0.6 1.5 0.7 0.1 0.5-0.2 0.5-0.1 0.7 0.5 0.5z" id="TR10" name="Balikesir" fill="none" stroke="#000000" stroke-width="0.6" /></g><path d="M98.4 202.5l10.2-7.4 1-1 0.8-1.4 0.9-1.3 1.3-0.8 1.5-0.6 8.7-5.6 2.6 0.6 2.1 1.9 1.4 2.7 1.8 4.7 1.6 7.4 0.8 2.2 1.7 3.3-0.3 3.2-1.3 1.5-3.1 2.6-3 1.2-2.6 1.8-0.6 2.2-0.3 2.4-0.8 2-1.5 1.5-1.3 2.2-0.2 1.3 1.3 1.3 0.7 0.3 1.1 1.4 1.3 4.2 2.8 2.5 3.3 0.3 5.4-0.2 0.9 0.2 1.5 1.4 0.8 3.4 3.3 2.3 3.7 1.7 0.4 0.9 0.5 1.9 0.4 0.9 2 1.9 2.4-0.6 1.1-2 0.8-1.9 2.3 0.1 2.3 1 1.4 0.1 1.4-0.4 2 2.1 1.3 3 4.6-0.7 1.8-0.6 1.3 0.2 0.9 1.1 1.7 0.5 1.1 0.1 2.1 0.6 1.3 1.7 2 6.2 2.1 3.2-7.5 2.7-1.9 0.3-1.9 0.6-1.6 0.9-1.7 0.7-9.2 0.1-11 3-11.7-1-2.4 0.4-5.8 3.9-3.8 1.4-3.1 0.1-0.1 0 0-0.3 0.1-0.5 0-0.5-0.2-0.5 0.7-0.6-0.4-1.4-1.3-2.2-1.2 0.4-1.7 0-1.8-0.3-1.1-0.4-0.3-0.4-0.2-0.4-0.2-0.4-0.5-0.1-0.4 0-0.4-0.1-0.2-0.2-0.1-0.3-0.2-1-0.4-0.3-1.4-0.2-2.4-0.9-1.3-0.2-1.5 0.3-0.8 0.4-0.3 0-0.3 0.2-0.1 0.4-0.2 0.5-0.4 0.2-0.4-0.3-1.1-2.2 0.3-0.8-0.1-0.8-0.2-0.9-0.3-0.8-0.5-0.8-1-1.1-0.5-0.6-0.8 0.4-0.2-0.7 0.1-1.8-0.7-0.6-0.7 0.1-0.8 0.3-0.9 0.2-3 0-0.5 0.2-0.6 3.9-0.2-0.1 0-0.1-0.1-0.1-0.3 0 0.1 0.8 0 0.8-0.2 0.6-0.6 0.2-0.3-0.2-0.6-1.5-0.4-0.7 0 1.2-0.5 0.1-0.7-0.5-0.9-1-0.3-0.5-0.1-0.6 0.2-0.8-1.3 0.3-1.2-1-1.2-1.3-1.1-0.5 0.2 0.9 0.1 0.3-0.3 0-0.3-0.4-1-1 0.1-0.6 0.1-0.6 0-0.5-0.2-0.6-0.4 0-0.3 1.6-1 0.4-1.2-0.4-1.6-1.3-0.4-0.3-2.5-0.7-0.1-0.4 0.3-1 1.2 0.6 0.6-0.8 0.4-1.1 1.1-0.3 0-0.5-0.9-0.6-0.2-1.1 0.4-0.6 0.7 0.7 0-0.6 0.2-0.2 0.1-0.2 0.3-0.2 0.2 0.7 0 0.7-0.1 0.5-0.4 0.6 0.2 0.1 0.3 0.2 0.2 0 0.4 0 0.4 0.1 0.1 0.3 0.1 0.3 0.3 0.2 0.6 0 0.7-0.1 0.4-0.4-0.5-0.7 0-0.5 0.8 0.5 0.3 0 0.6 0 0.5-0.3 1.2-0.8 0.4-0.2 0.6-0.6 0.1-1.2-0.4-1.2-0.8-0.7 0-0.5 1.2 0.6 0.6 0.6 0.4 0 0.7-1.6-0.7-0.4-1.1-1.1-1-0.3-0.6-0.6-0.5-0.1-0.4 0.3-0.4 0.8-0.3 0.2-0.9-0.1 0-0.2 0.4-0.6 0.3-1.2-0.2-0.7-1.4-2.2 0.3 0.4-0.1-0.7-0.6-1.8-0.1-0.4 0-0.4-0.5-2.3 0-0.9 0.1-0.9 0.3-0.7 0.4-0.2 0.7-0.2 1.1-0.5 0.5-0.1 1.3 0.1 1.2 0.3 1 0.5 0.9 0.7 1.6 1.8 0.7 1.1 0.3 0.9 1.1 1.8 1.2 1.5 0.4 0.4 0.3 0.3 0.3 0.3 0.2 0.7 0.1 0.6 0 0.6 0 0.6 0.3 0.6-0.3 0.3-0.2 0.1-0.2 0-0.3-0.3-0.5-0.1-0.6 0.1-0.5 0.3 0.8 0.5 0 0.5-0.4 0.7-0.4 0.9 1.1 0.1 0.5 0.7 0.3 0.9 0.5 1 0.8 2.7 0.8 1.3 1-0.3 0.3-0.8-0.3-0.5-0.8-0.6-0.3-2.5 0.2-1 0.6-1.1 0.7-0.6 0.8 0.2 0-0.4 0.3 0 0.5 0.6 0.6 1.1 0.9 2.5 0.2-0.1 0.5-0.2 0.2-0.1 0.4 0.7 0.7-0.1 0.8-0.4 0.9-0.2 3.8-0.4 2.3-1.1 0.7-0.2 0.3-0.1 0.6-0.6 0.3-0.1 0.5 0 0.4 0.2 0.5 0.1 0.5-0.3 0.1 0.2 0.2-0.2 1.3 0.6 1.1-0.7 1.2-1.2 1.3-0.8 0-0.4-0.4-0.4-0.2 0.1-0.4 0.3-0.3-0.5-0.9 0.5-1.6-0.2-0.4 0.2-1.2-0.6-1.3 0-3 1.3-1 0.5-0.1-0.1 0.4-0.7-0.8-0.6-1.4-2.3-0.7-0.4-1.2-0.4-0.4-0.3-1.1-0.8-0.6-1 0.7 0.7 0.9 0.6 1.3 0.8 0.7 0 0-0.4-0.6-0.7-0.6-0.6-0.6-0.4-0.8-0.4 0.2-0.7 0.3-1.5 0.2-0.8-0.7-0.6-0.5 0.2-0.5 0.4-1 0 0.2-0.6 0.2-0.2-1-0.4-0.6-0.1-0.7 0.1 0.1-0.3 0.1-0.7 0.1-0.2-0.6-0.1-0.5-0.2-0.8-0.6 0.3-0.4 0.4-0.3 0.4-0.1 0.5 0-0.9-1.5-0.4-0.8-0.3-1.1 0.9-0.6 2.4-0.5 1.4-1 0.3 0.1 0.1 0.3 0.1 0.1 0.1 0 0.5 0.1 0.5 0 1.1 0.5 0.6 0.2 0.8 0-0.3-0.8 0.4-0.4 0.4-0.3 0.4-0.2 0.4 0.5 0.1-0.5 0-0.5 0-0.5-0.1-0.6-0.3 0.4-1-1.7-0.3-0.4 1.9-0.8 0.3 1.3 0.8 0.1 0.5-0.7-0.6-1.6 0.8-0.2 0.7-0.4 0.6-0.5 0.5-0.5 0.9 0.6 1-0.6 0.4-1-1-0.3 0.8-1.6 0-0.7-0.8-0.6-0.8 0.7-0.6 0.4-0.5 0.1-0.9 0-0.2-0.2-0.5-0.8-0.3-0.2-0.5 0.2-0.4 0.3-0.4 0-0.4-0.5-0.6 0.5-1.6 0.9-0.6 0.2-0.5-0.2-0.8-1.2-0.7-0.2-0.9-0.6-0.4-1.4 0.1-1.6 0.7-1 0-0.4-0.2 0-0.8 0 0.6-0.8 1.1-0.8 1.2-0.7 0.9-0.2 0.5-0.6-0.4-1.1-1.1-1.9-1.3-1.7-0.7-0.5-1.5-0.8z" id="TR35" name="Izmir" fill="none" stroke="#000000" stroke-width="0.6" data-area-id="34" /><path d="M121.4 280.3l0.1 0 3.1-0.1 3.8-1.4 5.8-3.9 2.4-0.4 11.7 1 11-3 9.2-0.1 1.7-0.7 1.6-0.9 1.9-0.6 1.9-0.3 7.5-2.7 6.5 0.1 0.5 1.4 0.6 1.3 2.7 1.9 0.6 1.7-0.1 2.1 0.7 3.6-0.4 1.3-1.1 0.8-0.1 1.5 1 1.4 0.8 1.6 1 1.5 3 0.6 0.5 1.4-0.2 1.7-1.4 1-1.9 0.1-2.2 3.1-2.5 2.4-3.7-0.4-3.3 1-1 2.2 0.6 2.2 0.5 0.2 0.5 0.4 0.4 0.8 0.2 0.9-6.2-0.9-3.5-1.9-2.9-2.5-3.5-0.7-2.5 1.8-1.7 3.3-1.9 1.5-5.7 0.4-3.4-0.1-2-1.1-2.2 0-2.1 0.6-2.2-0.4-3.3-2.3-3.8-0.5-1.9-0.7-1.6-1.1-1.6 0-1.5 0.9-0.6 1-2.5 5.6-0.6 1-0.8 0-0.8 0.4-0.4 0.8-0.2 0.8-0.5 0.5-1.2-0.1 0 0.5 0.7 0.5-0.3 0.2-2.8 0.2-0.6 0.2-0.6 0.5-0.3-0.4-0.4-0.3-0.3 0-0.3 0.3-0.1-0.5 0-0.2-0.2-0.1-0.4 0.2-0.1 0.1-0.1-0.2-0.4-0.1 0.5-0.6 0.3-0.6 0.1-0.6-0.2-0.7 0.7-0.3 0.3-0.1 0-0.4-0.4-1.2 0.2-2.7-0.8 0.3-0.3-0.4-0.3 0-0.4 0.3-0.3 0.4 0.2-1 0.3-0.9 0.1-0.8-0.3-1 0.2-0.3-0.2-0.3-0.2-0.3 0.2-0.7 0.7 0.5 0.5-1 0.1-1.3-0.2-0.7-0.7-0.2-2.7-1.8-4.1-1.2-1.8-0.9 0.4-1.2 0.9-0.3 3.1 0.3 1.1-0.2 4.1-1.5 0.6-0.4 1.1-1.4 0.3-0.9 0.2-1.4 0.1-1.3-0.1-0.7-0.4-0.6-0.4-0.5-0.3-0.7 0.1-1.1 0.2-0.3 0.6-0.5 0.2-0.4 0.1-0.3z" id="TR09" name="Aydin" fill="none" stroke="#000000" stroke-width="0.6" data-area-id="35" /><path d="M128.1 308.9l0.6-1 2.5-5.6 0.6-1 1.5-0.9 1.6 0 1.6 1.1 1.9 0.7 3.8 0.5 3.3 2.3 2.2 0.4 2.1-0.6 2.2 0 2 1.1 3.4 0.1 5.7-0.4 1.9-1.5 1.7-3.3 2.5-1.8 3.5 0.7 2.9 2.5 3.5 1.9 6.2 0.9 0.6 1-0.2 1.2 0 1.7 0.5 1.8 1.2 0.4 1.7 0 2.2 0.9 1.4 2.5 0.7 2.7 1.6 2.3 3.5 0.6 0.6 0.6 0.8 1.6 0.6 0.6 3.5 1.6 2.8 2.8 0.7 2.3 0.4 2.3 0.1 1.9 0.2 1 1.2 1.1 2.6 0.2 4.7 2.6 1.7-0.8 0.9-1.3 0.6-1.5 0.3-3.9 2.2-1.8 1.1 3-0.8 3.5 1.9 0.7 2.3-2.9 5.7-0.8 4 5.6-5.1 11.8 0.6 3.7-0.9 3.2-2.3 1.7-2.1 2-0.5 1.6 0.3 1.6-1.1 0.6-1.4-0.6-3 1.2-1.6 3.2-0.3 1-0.4 0.9 0 0.7 0 0.8-0.3 1.5-0.9 1.2-1.3 0.7-0.2-0.2-0.4-0.9-0.6-0.7-2.9-1-0.8-1-0.6 0.5-0.2-0.8 0-0.2 0.2-0.2 0-0.5-1.3 0 0.3-0.3-0.5-0.4-0.3-0.1-0.5 0 0.2-0.5 0.4-0.4 0.5-0.2 0.5-0.1 0-0.2-0.1-0.1-0.2-0.1 0.3-1.1-0.3-1-0.6-0.7-0.7-0.4 0-0.4 0.6-0.5 0.3-0.2 0.4-0.1 0-0.5-0.2-2-0.2-1-0.6 0.3-0.3 0-0.6-0.8-2.3 0.9-1-0.1 0.9-0.3 0.2-0.5-0.3-0.8-0.5-0.9 0.2-0.4 0.5-1.1 0.3-0.6 0.7 0.6 0.5-0.5 0.7-0.9 0.7-0.3 0 0.3-0.3 0.7 0.4 0.2 0.6-0.2 0.3-0.4-0.2-0.6-0.2-0.5-0.3-0.5-0.3-0.3-3-2.1-3.7-1.6-0.4-0.5-0.4-0.9-0.8 0.6-0.8 1.1-0.7 0.6 0 0.4 0.4 0 0 0.4-0.9 0.1-0.4 0.1-0.4 0.2-0.1 0.5 0.1 0.5 0 0.5-0.6 0.1 0.2 0.5 0.2 0.2 0.2 0.2-0.3 0.4 0.5 0.5 0.2 0.3 0.3 0 0.2-0.6 0.3-0.5 0.1-0.5-0.3-0.9 0.8 0.8-0.3 1-0.8 0.9-0.7 0.6 0.3 0.6-0.5 0.3-0.8 0.1-0.6-0.2-0.5-0.5 0-0.6 0.4-0.4 0.7-0.1 0-0.5-0.8-0.4-0.5-0.4-0.5-0.2-0.8 0.3-0.2-1.6-1.7-1.2-2.2-0.4-1.4 0.7-0.3 0-0.2-1.1-0.6-0.4-0.6 0.2-0.6 0.9-0.3-0.4-0.6-1.6 0.4-0.8 0.2-1.2-0.1-1.1-0.5-0.6 0-0.2 0-0.1 0.2 0 0.1-0.1-0.1-0.2-0.1-0.1 0-0.2 0.2-0.3-0.3 0-0.2 0.5-0.1 0.3 0 0.4-0.3-0.2 0-0.1-0.1-0.4-0.6-0.7-1.4-0.3-1.1 0.6 0.2 1.5-0.5-0.4-0.5-0.1-0.4-0.1-0.6-0.2 0.7-0.4 0-0.4-1.1 0-0.7-0.2-0.3-0.6-0.2-1.2 0.3 0 0.3 0 0.1-0.2-0.1-0.4-0.1-0.1-0.1-0.2-0.1-0.1-0.1-0.7-0.2-0.3-0.2 0-0.1 0.6-0.5 0.5-0.9 0.3-1.4 0.1-0.5 0.2 0 0.4 0.3 0.4 0.4 0.3 0.3 0 0.4-0.1 0.4 0 0.5 0.5-0.5 0.9-0.4 0.8-0.5 0.7-0.9 0-2.4-1.3-0.5-0.3-0.3 0 0.2 0.9 0.1 0.3-1.3 0.1-0.5-0.2-0.2-0.5 0.2-0.5 0.5-0.3 1.3-0.2 0-0.4-0.6-0.4-0.7-0.6-0.7-0.4-0.8 0.4-0.6 1-0.3 0.9 0.1 0.9 0.7 0.6-0.3 1.3 1.9 1.4 0.3 1.4-0.5-0.4-0.8-0.3-0.7 0.2-0.3 0.9-0.3-0.2-0.3-0.2 0 0.3-0.1 0.2-0.1 0.1-0.2 0.2 0.3 0.1 0.1 0.3-2.4 0.9-1 0.7-0.8 1.3-0.7 1.3-0.9 1.4-1.1 0.9-1.2-0.4-0.2 0.4-0.2 0.2-0.2 0.1-0.4 0.1 0.1 0.2 0.1 0.4 0.1 0.2-0.6 0.3-0.4 0-0.4-0.2-0.2-0.5-0.5 0.8-0.6 0.2-0.6-0.4-0.6-0.6 0.1-0.2 0.1-0.4 0.1-0.2-0.2-0.2-0.2-0.2-0.2-0.4 3.6 0 0.9-0.4 0.5-0.6 0.5-0.7 0.7-0.7-0.7-0.8-0.9 0.8-0.4 0.3 0-0.3 0.5-0.5 0.1-0.8-0.1-0.7-0.5-0.5-0.5-0.3-0.1 0.2 0 0.7-0.3 0.3-0.5 0-0.5-0.3-0.4-0.2-0.4 0.2-0.5 0-0.5-0.2-0.2-0.6 0.3-0.2 1.7-0.4-0.4-0.4 1 0.1 0.3-0.1 0.3-0.2 0.2-0.3 0.2-0.2 0-0.1 1.8-0.1 0.5-0.3-0.2 0.9 0.7 0.1 0.7-0.6 0.1-0.8-0.5-0.4-0.9-0.1-0.3-0.3 0.1-0.4 0.4-0.4 0.5-0.4 0.3-0.5 0.2 0.4 0.2 0.3 0.6 0.6-0.2-1.1-0.1-1.2-0.3-0.5-0.5-0.1-0.6 0-0.4 0.3-0.8 1.3-1 0.7-0.4-0.1-0.2-0.6-0.7 0.7-1.9 0.6-0.7 0.4-0.3 0-0.3-0.8-0.4 0.2-0.6 0.6-0.7 0.4-0.2-0.8-0.4 0-0.3 0.5-0.4 0.3-0.3-0.2-0.3-0.5-0.3-0.1-0.4 0.8-0.3 0-0.6-0.5-0.8-0.5-1-0.2-0.9 0.4 0-0.4-0.5 0.2-0.6 0-0.6-0.2-0.7 0-0.8 0.2-1 1.3-0.7 0.5 0 0.4 0.2 0.5-0.7 1.9-0.1 1.3-1.6-0.8-0.8-0.3-0.8-0.2-0.9 0.1-0.7 0.2-0.5 0-0.2-0.7-3.3 1.2-0.2 0.4-0.2 0.3-0.2 0.2-0.2-0.2-0.6-0.5-0.4-0.2-1.1-0.2-0.4 0-0.6 0.2-0.1-0.7-0.4-0.4-0.5 0-0.6 0.3 0-0.2 0-0.1-0.2 0-0.1-0.1 0.2-0.3 0-0.4-0.2-0.3-0.4-0.2 0-0.4 0.6 0.3 0.8 0.2 0.8 0 0.6-0.3 0.4-0.6 0.2-1 0.6-0.6 0.5-0.4 0.4-0.1 1.2 0.1 3.5-0.6 1.7 0.2 0.9-0.3 0.2-0.7 0.1-0.8 0.2-0.7 1.1-0.3 2.2 1.4 0.6-0.3 0.8 0.4 0.6 0 0.7-0.1 0.5 0.1 1.2-1.1 0.7-0.4 4.1-0.1 0.5-0.2 0.3 0.4 0.8 0.3 1 0.3 0.9 0 1.6-0.2 0.8 0.3 0.8 0.7 0.2-0.6 0.3-0.3 0.9-0.7-0.3-0.7-0.5-0.3-0.7-0.2-0.8 0 0.3-0.4 0.4 0.2 0.1-0.4-0.3-0.6-0.5-0.5 0.2 0 0.1-0.1 0.1-0.1 0.2-0.1 0.4 0.2 0.3-0.2 0.5-0.3 0.5-0.2 0-0.3-1-1-0.4-0.6-0.3-0.5 0.7 0.4 0.3-0.4-0.3-0.2-0.1-0.2-0.1-0.2-0.2-0.2 0.4 0 0.8-0.1 0.5 0.1 0-0.4-1 0 0-0.4 1.1 0 0.5 0.1 0.3 0.3 0.3-0.3 0.3-0.1 0.2 0.1 0.2 0.3 0.3 0 0.5-0.3 1.1 0.5 0.4-0.2 0.3 0 0.1 0.4 0.3 0.8 0.1-0.3 0-0.1 0-0.1-0.1-0.3 0.1-0.3 0-0.2-0.2-0.2-0.3-0.1 0-0.4 0.4-0.1 0.4 0.1 0.3 0.1 0.2 0.3 1-1.6 0.3-0.4 0-0.5-0.6 0 0.3-0.6 0.3-0.6 0.8 0.6 0.7 0.2 0.4-0.4-0.3-0.8 2.6-1 1.4-0.4 0-0.3-0.4-0.5-0.3-0.2-0.5-0.2-6.2 1-2.3-0.1-0.9 0.2 0.1 0.7 0 0.4-0.8-0.4-5-0.8-0.5 0.1-0.6 0.6-0.6 0.1-0.5-0.1-1.4-0.3-1.2 0.1-3.9 1.3-0.5-0.2-0.3 0 0 0.2-0.3 0.6-0.4-0.1-0.4-0.1-0.6 0-0.5 0.2-1-0.7-1.5 0-1.5 0.6-0.9 0.9-0.9-0.5-1.3-0.5-1.1 0.1-0.3 1.4-1.1-0.9-0.5-0.2-0.7-0.2-1.4 0.2-0.5-0.2-0.5-0.4-0.8-1.3-0.3-0.3-0.8 0-0.7 0.7-0.3-0.5 0.1-0.2-0.3 0-0.1 0.6-0.6 1.4-0.1-0.3-0.1-0.1 0.1-0.1 0.1-0.3 0-0.1-0.1 0-0.1-0.1-0.1-0.2 0.2-0.2 0.1-0.1-0.1-0.1-0.2-0.4-0.4 0.3-1.3 0.3-0.6 0.2 0 0.4 0.2 0.6-0.3 0.7-0.5 0.5-0.7 0.3 0.2 0.5 0.2 0.3-0.5-0.2-0.2 0-0.3 0.2-0.3-0.5-0.9 0.2-0.5-0.9-0.2-1.3-0.1-1-0.2-1-0.4-0.8-0.2-0.8 0.5-1.3 0.4 0 0.8-0.3 0.8-0.6 0.6-0.7-0.3-0.3-0.4-0.1-0.4 0.1-0.5 0.3-0.2-0.2-0.1-0.2-0.1-0.4 0.4 0.3 0.5-0.6 1.5 0.5 0.9-0.2 0-0.4 0.1-0.5 0.1-0.5-0.2-0.7 0.5 0.2 0.4 0.3 0.1 0.5 0 0.7 0.3 0 0.3-0.6 0.3-0.5 0.4-0.1 0.3 0.4 0.2-0.2 0-0.1 0.1-0.2 0 1 0.2 0.3 0.3 0 0.5 0 0.4 0.3 0.3 0.2 0.3 0.1 0.7-0.2-0.2 0.1 0 0.1-0.1 0-0.1 0.1 0.7 1.3 0.7 0.4 0.7-0.1 1.2-0.9 1-0.5 0.4-0.3 0.5-0.3 1.2 0 0.5-0.3 0-0.4-0.7 0.1-0.1 0.1-0.2 0.2-0.4-1.9-0.3-1-0.6-0.4 0-0.4 2.2-0.5 0.6 0.1-0.5 1.2 0.5-0.1 0.4-0.3 0.7-0.8-0.7-0.3-0.3-0.4 0-1.2 0.1-0.2 0.6-0.5 0.3-0.3 0.1-0.4 0.1-0.8 0.1-0.4-0.6-0.4 0-0.1-0.4-0.1-0.2 0.2 0 0.3-0.1 0.1-1.1-0.1-0.6 0.2-0.2 0.5-0.3 0.9-0.6 0.8-0.7 0.4-0.7-0.3 0.8-0.7 0.1-0.8-0.5-0.5-1.1 0-0.1 0.2-0.5 0.5-0.4 0.2-0.3-0.3 0.1-0.6 0.4-0.5 0.8-1.1 0-0.5 0.2-0.6 0.1-0.9-0.6-0.9-0.3 0-0.2 1.6-1.1 0.6-1.3-0.2-1-0.8-0.4-1.3 0.4-1.2 0.9-1 1.1-0.5-0.6-0.9-0.9-0.5-0.2 0.1z" id="TR48" name="Mugla" fill="none" stroke="#000000" stroke-width="0.6" data-area-id="36" /><path d="M216.3 375.3l1.3-0.7 0.9-1.2 0.3-1.5 0-0.8 0-0.7 0.4-0.9 0.3-1 1.6-3.2 3-1.2 1.4 0.6 1.1-0.6-0.3-1.6 0.5-1.6 2.1-2 2.3-1.7 0.9-3.2-0.6-3.7 5.1-11.8 1.4-0.2 1.3-0.7 1.1-1.6 1.3-1.3 1.9-3.5 0.7-4.4 2.6-3.6 8.6-4.4 2.9-0.5 7-3 2.9 0.4 2.9 3.6 1.1 0.4 6.6-0.3 4.3 0.5 3.7 0 1.8-0.5 2.9-3.1 0.9-2.6 3.3-2.9 4.2 1.7 4.9-1.7 2.6-0.4 2.2-1.6 2.4-0.9 2.5 0.4 1 1.3 1.2 1.2 1.8 1.5 2.1 0.8 4.7 0 12.2 2.6 4 2.6 3 2.8 3.3 2.3 2.4 2.5 2.1 3 1.4 1.3 1.4 1 3.2 3 1.8 0.8 1.5 0.9 0.2 1.9-1.2 0.9-0.5 1.8 0.7 1.6 2 0.8 2.2 0.2 1.5 0.3 1 1.4 0.8 4-0.4 4 1.7 4.3 1.9 4 1.3 1.6 1.6 1.1 1.9 1 0.9 1.9-0.4 3.5 0.2 6.5-0.7 2.8-0.8 1.5-0.6 1.6-0.2 1.5-0.4 1.4-0.7 1.1-0.2 0.4-0.2-0.1-1.7-0.2-0.8-0.2-3.7-2.1-0.5-0.5-0.3-0.7-0.8-0.4-1-0.3-0.8-0.4-2.2-3-0.4-0.1-0.2-0.3-0.9-0.6-0.2-0.3-0.2-1.7-0.1-0.5-1.1-1.6-2.9-2.6-0.6-1.6-0.1-0.5-0.2-0.4-0.5-0.8-0.5-0.9-0.2-0.2-0.6-0.3-0.2 0-0.8-1.8-0.6-1-0.7-0.4-2.9-3-0.3-0.2-0.5 0-0.5 0-0.5-0.2-0.4-0.2-0.3-0.3-0.2-0.2-1.9 0.1-1-0.1-0.4-0.6-0.5-0.5-1.3-0.5-1.3-0.2-0.8 0.2-0.5-0.4-1.8-0.8-0.9-1.3-0.6-0.6-0.6 0.1-1-0.2-3.6-1.6-0.8-0.7-0.7-0.8-9-4-1.3-0.2-0.1-1.5-1.7-1-19.1-2.9-7.8 0.5-1.3-0.4-1-0.6-1.9-1.5-2.8 1.9-1.2 1.3-0.7 1.8-0.6 1.1-0.2 0.4 0 1.9-0.3 1.9 0.1 1 0.5 0.9 0 0.4-0.4 0.5-0.3 0.5-0.2 0.6-0.1 0.8 0.1 1.1 0.3 0.6 0.3 0.5 0.3 0.7 0.3-0.4-0.1 1.2-0.7 2.1 0.2 0.7-1.7 1.4-0.7 0.9-0.5 2.1-1.1 1.6 0.1 0.5-0.7 1 0.1 1 0.5 0.8 0.7 0.4-0.3 0.9 1.2 0.4-0.7 0.9-1.3 1.1-0.5 1.2 0.3 0 0.2-0.3 0 0.1 0.1 0.1 0.4 0.1-0.5 0.5-0.7 0.5-0.6 0.5-0.5 1.4-0.6 0.7-1.4 1.2 0.1-2.5-0.2-1-0.6-0.5-1.1 0.3-5-2.3-1 0-3.6 0.6-0.4 0.5-0.2 0.9 0 1.2-0.3 0-0.1-0.4-0.3-0.8-0.3 1.1 0 0.5-0.7-0.4 0.1 0.4-0.1 0.4-1.7-0.4-0.4-0.2-0.4-0.3-0.4-0.2-0.6 0.3 1 0 0 0.4-3.3 1.7-0.7-0.1-0.5 0.4-0.6-0.1-0.5-0.2-0.6-0.1-0.5 0.1-0.2 0.1-0.6 0.6-0.8 0.5-1.8 0.4-0.7 0.3 0.2 0.1 0.1 0 0.1 0.1 0 0.3-0.5 0-1.2 0.3 0 0.4 1 0-0.6 0.7-0.7 0.5-0.8 0.3-0.8 0.2 0-0.5 0.2-0.2 0.2-0.1 0.1-0.2 0.1-0.3-0.6 0.1-0.1 0.1-0.2 0.3-0.6-0.6-0.6-0.2-0.5 0.1-0.6 0.2-0.2 0.3 0 0.2-0.2 0.2-0.5 0.1 0 0.2-0.8 1.1-0.2-1.2-1.6-0.8-0.5-1.2 0.7 0.3 0.3-0.3-0.1-0.6-0.4-0.2-2.4 0.3 0-0.3 0.4-0.3 0.5-0.1 0.5-0.1 0.5 0-1-0.4-3.8 0-1.3-0.3-3-1.7-0.5 0.6-0.3-0.6-0.1-1.6-0.3 0.4-0.2-0.1-0.2-0.2-0.3-0.1-0.5 0.2-0.2 0.1-0.1 0.2-0.2 0.3-0.3 0.3-0.1 0.4-0.2 0.4-0.4 0.2-0.4-0.3-0.3-0.6-0.3-0.4-0.3 0.4-2.9-2.7z" id="TR07" name="Antalya" fill="none" stroke="#000000" stroke-width="0.6" data-area-id="37" /><path d="M373.5 387l0.2-0.4 0.7-1.1 0.4-1.4 0.2-1.5 0.6-1.6 0.8-1.5 0.7-2.8-0.2-6.5 0.4-3.5 3.1-0.4 3.1 0.8 2.9 0 2.7-1.3 2.8-0.6 2.9 0.1 1.5-0.2 1.2-1.2 0.5-2.1 0.7-1.9 0.7-0.3 0.7-0.1 1.7 0.9 1.8 0.7 1.2-1.6-1.1-1.8-2.2-1.6-2.5-0.7-1-0.8-0.9-1.2-1.2-0.5-0.7-1.6-0.4-1.7-0.8-1.4-1-1.2-0.1-1.9 1.8-0.3 0.8-0.3 2.1-1.4 1.4-0.5 0.6 0.3 0.1 0.5 0.4 0.7 1.7 0.4 1-1.7 0.6-2.6 1.5-1.9 1.8-0.6 1.6-1.1 1.5-1.4 1.7-1 2-0.6 6-0.5 3.8-1.5 3.9-0.4 1.6 0.5 1.2-0.1 1.7-0.9 3.5-0.7 4.6-3.5 1.7-0.7 3.6-0.3 3.3-1.3 1.6-1.9 1.3-0.8 4.2-1.5 2.7-1.3 2.1-2.1 1.4-0.7 2.5-0.9 0.9-0.6 0.6-1.9 3.5-0.1 1.6-0.6 1.5-0.9 3.3-1.4 3.3 0.8 1.6 3.6 1.8 3.3 2.3 1.8 0.1 6.1 1 3.4 2.3 1.7 2.9-0.2 1.8 1.9-1.4 3.7 0 3.4 0.7 3.3 0.2 1.7-0.2 1.6-1.8 1.6-2 0.6-2.5 1.7 0 0.1-0.2 0-0.8 0.2-0.6 0.3 0.1-0.3 0.3-0.9-0.7-0.4-2-2.1-3.9-2-0.2 0.4-1.4-0.8-2 0.5-3.2 1.5-1.4 0.2-0.6 0.2-1.4 0.9-0.3 0.2-0.5 1.1-0.2 0.3-1.5 0.8-4.1 3.8-5.2 3.2-1.4 1.2-4.1 5.3-0.4 0.9-0.2 0.6-0.5 0.3-1 0.5-1.6 1.7-1.7 1-0.1 1.5 0.2 1.9-0.1 1.6-0.9 0.8-1.5 0.3-1.3 0.4-0.5 1.3 0.3-0.1 0.2-0.2-0.1 0.4-0.9 1.2-0.4 0.7-0.2 0.9 0 0.7-0.3 0.4-0.8 0 0-0.4 0.4-1-0.2-1.7-0.7-1.5-1-0.6-0.7-0.2-0.6-0.4-0.6-0.2-0.7 0.6-0.9 1.4-0.4 0.6-0.8 0.2 0.3 0.1 0.2 0.1 0.1 0.2-0.5 0.5-0.7 1.3-0.6 0.2-0.4 0.1-1.7 0.7-0.3 0.3-1.5 1.6-0.2 0.6-0.3 1.6-0.3 0.4-0.1-0.4-1.2-1.8-0.2-0.9-0.4-0.2-0.6 0.1-0.7 0.3-1.1 1-1.1 1.4-1 1-1-0.2 0.6-0.3 0-0.5-1.1-0.1-2-0.5-1-0.2-1 0.2-1.7 0.9-0.7 0.2-1.8-0.7-1-0.1-0.9 1.1-1 0.1-2.2-0.1-1.4 0.4-0.5 0.1-0.6-0.2-1-0.5-0.5-0.1-1.1 0.3-0.6 0.7-0.4 1-0.7 0.8-0.5 0.4-0.2 0-0.1-0.2-0.5-0.2-0.6-0.1-1.5 0.1-3.1-0.8-0.9 0-3.1 1.6-0.5 0.2-0.4 0.7-2.6 1.9-2-0.1-4.3-1-1.8-0.9-2.9-1.9z" id="TR33" name="Mersin" fill="none" stroke="#000000" stroke-width="0.6" data-area-id="38" /><path d="M539.2 332.9l-1-0.4-1-0.2-0.9 0.5-3.9 4.5 0 2.5 0.7 1.2-1.8 2.3-0.7 0.5-0.8 0.2-0.4 0.4-1.6 1.8-0.7 0.6-1.8 0.4-4 0.2-1.7 0.7-0.6 0.5-0.5 1.1-0.5 0.4 0.2-0.4 0-0.3-0.2-0.3-0.4-0.2-0.4 0.9-0.7 0.7-0.5 0.7 0.4 0.9 0.7-0.9 1 0.3 0.2-1 0.2 0.1 0.2 0.2 0.1 0.2 0.1 0.3 0.3-0.4 0-0.4 0-0.4-0.3-0.4 0.7-0.4 0.3 0.3 0.2 0.6 0.3 0.3 0.5-0.1 0.5-0.4 0.5-0.2 0.6 0.3-2.8 1.3-1.3 1-0.8 1.4 0.1 0.6 0.7-0.4 2.1-2.5 0.6-0.4 0.8-0.2-1.8 1.8-0.3 0.5-0.4 1.1-0.3 0.5-0.2 0.5 0 0.8-0.1 0.7-0.4 0.2-0.4 0.1-0.7 0.6-0.5 0.1-1.5 0.1-0.6-0.1-1.5-1.4-0.4-0.2-0.7 0.2-0.4 0.3-0.1 0.6 0.4 0.1 0.4 0.1 1.7 0.7-2.1-0.6-2-0.2-0.4 0.1-1.1 0.6-0.3 0.3-0.2 0.4-0.4 0.3-1 0.3-1.2 1.1-0.1 0.2-0.5-0.3-0.8-1.1-0.5-0.3-0.7-0.2-12-7.3-1.3-0.4-1.5-1.1-1-0.3-0.7-0.1-0.6 0 0-0.1 2.5-1.7 2-0.6 1.8-1.6 0.2-1.6-0.2-1.7-0.7-3.3 0-3.4 1.4-3.7-1.8-1.9-2.9 0.2-2.3-1.7-1-3.4-0.1-6.1-2.3-1.8-1.8-3.3-1.6-3.6 0-2.8 0.2-1.3 1.2-1.9 0.7-0.6 0.7-0.7 0.7-2.5-0.3-1.7-1.2-3-0.2-3 1.5-2.2 2.4 0.2 2.4 0.8 4.7-0.8 6.2-6.3 8.2 0.7 4.3 1.1 5.8 2.3 2.5-1.2-1-11 17.6-12.2 2.6-3.5 2-4.1 1.3-1.9 2.1-5 2-1.7 3.7-2.1 3.8-1 2.5 1.1 1.8 2.8 1.2 3.2 2 2.1-2.6 2.5-1.5 3.8-2.4 10.7-1.4 3.8-0.6 4-0.1 1.8 0.3 2.9 1.5 3.7-0.1 2.4-1.6 1.6-0.9 0.5-1.3 1.7-3.6 0-4.5 0.3-2.2 3.7-2.7 6.2-3.1 7.7 0 4.6 1.4 4.4 1-0.1 3.1 0.6 1.3 1.1 0.4 0.8 0.6 3.4-0.7 3.1-1.4 3.6z" id="TR01" name="Adana" fill="none" stroke="#000000" stroke-width="0.6" data-area-id="39" /><path d="M336.8 86.3l3.5 0.3 3 0.8 10.2 0.3 2.3 0.1 4.1 0.9-0.3 1.7 0 1.8 1.1 0.7 1.4 0.2 2.2 1.4 5.4 2.7 1.8 3.3-0.1 1.7-0.1 0.8-0.1 1-0.7 3.4-1.7 0.7-1.4 1.3-0.2 3.4 1.8 5-0.8 1.5-1.7 1.9-1.3 2.3-3.9 2.1-6.5-1-2 0.6-2 1.4-5.6 1.3-3.3 1.5-4 0.9-5.9-0.1-1.9 0.3-4.2 1.7-1.6-0.2-1.5-0.6-1.4-0.2-1-0.5-1.6-1.7-8 0.9-4.2-2.6-4.4-1.5-1.2 1.3-0.5 2.4 0.2 3.7-1.5 3.2-3.9 2.2-2.9 3.9-3.1-0.5-2.8-1-1.8-2.3-2.9-5.2-0.7-2.7 0.9-2.3-1.1-2.2-1-1.2-0.3-1.6 0.6-0.7 0.8-0.4 1.3-3.9 1.9-2.9 3.3 0.2 3.1-1.5 0.6-1.9-0.4-1.9-0.1-2.1 3-2.3 3.9 1.4 7.7-0.3 5.4 2.3 4.6-0.5 3.6-2.8 1.8-4.5 0.2-3.3 2.3-1.8 6.1-1 4.4-1.1 2.3-2.7 0.8-5.5z" id="TR14" name="Bolu" fill="none" stroke="#000000" stroke-width="0.6" data-area-id="40" /><path d="M292.4 142.5l2.9-3.9 3.9-2.2 1.5-3.2-0.2-3.7 0.5-2.4 1.2-1.3 4.4 1.5 4.2 2.6 8-0.9 1.6 1.7 1 0.5 1.4 0.2 1.5 0.6 1.6 0.2 4.2-1.7 1.9-0.3 5.9 0.1 4-0.9 3.3-1.5 5.6-1.3 2-1.4 2-0.6 6.5 1 3.9-2.1 1.3-2.3 1.7-1.9 0.8-1.5-1.8-5 0.2-3.4 1.4-1.3 1.7-0.7 3.7-0.1 3.8 0.6 13.9 6.5 1.4 1.8 1.1 2.2 1.5 1.8 1.8 1.3 0.8 0.4 2.1 1.8 1.5 0.9 1 1.6 0.5 2.1 3.1 2.5 3.5-0.4 0.2-1.6 0.6-1.8 0.8-0.3 1 0 1.5 0.6 1.4 0.9 6.4 2.1-0.6 5.1-0.6 3.5 0 4.2 0.3 3.7-0.6 3.6-5.5 0.6-3.5 1.5-2.2 5.3-1.2 5.2-1.4 5.2 1.2 5.3 3.8 4.6 1.3 2.3 1.9 8.8 3.8 7.4 0.9 3.4 5.4 3.4 2.4 2 0.8 0.3 0.7 0.6 0.7 1.2 1 0.7 2.5 0.2 1.6 0.6 0.6 0.7 3 1.1-0.4 2-1.6 4.1 1.9 5.1-0.1 3.6-4 3.8-1.8 0.9-4.2-0.2-4.2 1.2-3.9 2.2-4.1 1.1-1-2.4-1.5-2.2-1.3-2.3-1-2.5-0.1-3.5 0.6-3.6 0.2-3.3-0.3-3.3-2.5-5.9-4.7-3.4-2.7-0.8-0.8-0.5-2.1-1.6-2 0-0.9 1.3-0.5 1.6-0.4 3.2-0.7 1.1-2.1-0.3-2.7-2.2-2.3-0.7-4.8 4-1.8 2.3-2.1 1.2-3.6-1.5-3 1.4-2.8 2.4-2-0.2-1.7-1.6-1.6-0.9-4-1.4-2.4 0.3-5 1.5-1.7-0.5-6.8-5.7-2.1-1.3-2-0.9 1.1-0.8 2.5-1.2 0.5-0.6 0.4-0.7 1-0.3 1.1-0.1 1.1-1.2 0.9-1.4-0.3-1.9-1.5-1-1-1.6-0.1-2.4-0.1-0.3-0.2-0.8 0.5-1.9 0.2-1.8 0.1-1.9-0.6-1.3-0.7-1.1-0.2-1.9-0.6-1.3-2.4-2.1-2.4-6.5-0.3-3.1 2-2.2-0.1-1.6-0.6-0.4-0.7-1.1-0.4-0.9-1.6-0.1-1.4-0.7-1.2-1.9-0.6-1.9-0.2-1.6-0.6-1.1 0-1.8-2.2 0.3-1.9-1.3-1.7 0.6-3.5 0.1-1.8 0.4-1.6-0.5-1.4 0.4-1.9-2.1-1.2 0.2-1.2 0.4-4.4-0.6-1.3 1.1-1.3 1-1.3-0.5-1.2-0.7-2.7-0.3-4.6 1.9-1.9 0.2-1.1-0.4-0.3-1.3-0.4-3.7-2.1-2.6z" id="TR06" name="Ankara" fill="none" stroke="#000000" stroke-width="0.6" data-area-id="41" /><path d="M248.6 118.2l1.3 2.8 1.7 2.5 1.9 1.6 1.7 1.9 4.2 1.3 6.6-1.7 2.1-0.2 1.7 0.5 1.8 0 1.5 0.9 1.2 1.8 0.8 0.7 3.5-0.1 2.5 0.6 0.7 2.7 2.9 5.2 1.8 2.3-4.9 0.2-3.8 3.1-0.9 3.1-0.6 3.3-1.6 2.8-2.4 1.8-2.6 0-2.4 1-0.8 1.4-0.8 1.2-1.4 0.7-1.3 1.1-0.4 6.3-2.1 3.6-2.6 3.1-1.8 0.5-3.6 0.4-3.7 1-2.1-0.5-5.2-3.8-1.7-0.7-1.9-1.2-0.7-1-1.7-3.3-0.2-2.7 0.8-5.2 2.7 0.5 2.3-0.8-0.6-3.1-1.3-1-2.5-3.6 0-3.1 1.3-6.2 4.6-4.9 0.8-1.7-0.2-1.7-1.1-1.4-0.2-1.9 0.6-1.5 0.5-1.7 0.2-2 0.9-1.7 0.9-1 1.1-0.8 2.5-1.4z" id="TR11" name="Bilecik" fill="none" stroke="#000000" stroke-width="0.6" data-area-id="42" /><path d="M286.5 141l2.8 1 3.1 0.5 2.1 2.6 0.4 3.7 0.3 1.3 1.1 0.4 1.9-0.2 4.6-1.9 2.7 0.3 1.2 0.7 1.3 0.5 1.3-1 1.3-1.1 4.4 0.6 1.2-0.4 1.2-0.2 1.9 2.1 1.4-0.4 1.6 0.5 1.8-0.4 3.5-0.1 1.7-0.6 1.9 1.3 2.2-0.3 0 1.8 0.6 1.1 0.2 1.6 0.6 1.9 1.2 1.9 1.4 0.7 1.6 0.1 0.4 0.9 0.7 1.1 0.6 0.4 0.1 1.6-2 2.2 0.3 3.1 2.4 6.5 2.4 2.1 0.6 1.3 0.2 1.9 0.7 1.1 0.6 1.3-0.1 1.9-0.2 1.8-0.5 1.9 0.2 0.8 0.1 0.3 0.1 2.4 1 1.6 1.5 1 0.3 1.9-0.9 1.4-1.1 1.2-1.1 0.1-1 0.3-0.4 0.7-0.5 0.6-2.5 1.2-1.1 0.8-0.2 1.8-0.3 1.8-0.7 0.9-3.8 0.7-2.8-0.3-1.8-0.5-3.7-0.1-6.1 0.6-3.6-2.7-2.3-5.4-3.4-3.5-1.9 0.5-1.7 1.5-1.7 1.1-1.8 0.5-3.5 2.7-3.4 1.5-2.1-2.4-2.4-1.1-1.6 1.3-3 3-3.2 2.1-1.7 0.8-2.2 0.4-2.1-1.2-0.8-0.6-0.8-0.5-1.1-1.4-0.7-1.9-1.3-1.3-1.7-0.4-0.9-3.9-4.7-6.3-0.6-4.7-1.3-3.7-5.2-5-1.8-3 2.6-3.1 2.1-3.6 0.4-6.3 1.3-1.1 1.4-0.7 0.8-1.2 0.8-1.4 2.4-1 2.6 0 2.4-1.8 1.6-2.8 0.6-3.3 0.9-3.1 3.8-3.1 4.9-0.2z" id="TR26" name="Eskisehir" fill="none" stroke="#000000" stroke-width="0.6" data-area-id="43" /><path d="M397.1 83.1l1.1 1.4 0.7 0.6 6.1 0.6 4.3 2.9 1.8 2.1 2.2 0.7 1.8-0.6 5-3 3.7-0.7 7.7-4.1 1.6-0.6 0.7 0.4 0.5 2.5-1.5 2-1.2 1.4-0.5 1.9 1.7 3 2.8 1 1.5 1.4 1.6 1.2 2 0.4 1.9 0.1 2.4 3.9-0.6 2.5-1 2.5 0.3 2.6 1.2 2.4 0.3 2.2-0.1 2.2 0.6 2.3 1.2 2 0.7 1.5 0.5 1.7 0.4 1.6-0.1 1.6-0.7 0.4-1.1 2.6-1.4 2.4-0.8 0.4-1 0.2-3.8 2.2-4.4-0.4-13.1-4.2-6.4-2.1-1.4-0.9-1.5-0.6-1 0-0.8 0.3-0.6 1.8-0.2 1.6-3.5 0.4-3.1-2.5-0.5-2.1-1-1.6-1.5-0.9-2.1-1.8-0.8-0.4-1.8-1.3-1.5-1.8-1.1-2.2-1.4-1.8-13.9-6.5-3.8-0.6-3.7 0.1 0.7-3.4 0.1-1 0.1-0.8 4.9-2.3 5.6-4.5 2.3-4.2 1.7-1 4.6 0.5 4.6-2.5 2-5.1z" id="TR18" name="Çankiri" fill="none" stroke="#000000" stroke-width="0.6" data-area-id="44" /><path d="M385.2 52.5l1.6 1.8 2.9-0.4 3.5-1.2 3.5 2.6 1.3 5.6 1.3 3.1-4.6 0.9-2.5 2.5-2.2 3-0.4 2.1 0.9 6.8 2.7 0.4 2.5 1.1 1 1.5 0.4 0.8-2 5.1-4.6 2.5-4.6-0.5-1.7 1-2.3 4.2-5.6 4.5-4.9 2.3 0.1-1.7-1.8-3.3-5.4-2.7-2.2-1.4-1.4-0.2-1.1-0.7 0-1.8 0.3-1.7-4.1-0.9-2.3-0.1 0-5.6 1.5-5.1 0.8-3.3 1.7-2.1 2.5-3.5 5.2 0.2 5-1.3 5.7-4.8 2.1-4.6 2.7-0.8 4.5-4.3z" id="TR78" name="Karabük" fill="none" stroke="#000000" stroke-width="0.6" data-area-id="45" /><path d="M569.8 97.6l-0.8 1.6 0.5 1.9 0.6 0.4 2.1 0.5 2.7 1.6 3.9 1.4 2.5 1.5 3.1 1.3 3.4 0.3 3.3-0.5 3.1 0.3 10.9 7.6 6.4 0.4 1.6 3 0.9 3.8-2.5 4.9-2.8 4.1-1.7 0.7-1.8 0.4-0.7 0-0.6 0.2-1.7 1.3-1.7 1-4 0.6-4-0.2-4.4 0.6-6.3 1.6-1.7 0.8-5.4-0.8-1.8 0.6-1.7 1-1.3 3.6-1 3.7-0.9 2.4-1.5 1.6-7 2.7-7.9 0.4-11.1 2.2-0.5-1.3-0.9-0.9-0.9-1.8 0.1-2.4 0.3-3.5-2-1.9-2 0.6-1.9 0.8-2.3 0.5-2.2 0.2-3.7-0.8-4.4 0.4-3.8-2.6-3.3-3.7 1.9-4 1.4-1.6 2.6-1 0.9-0.3 1.6-0.7 1.4-1.6 1.3-1.9 1.4-2.5 2.1-4.7 1.2-1.5 4-0.3 3.8 1.1 1.2 1 1.3 0.7 1.1 0.3 0.9 0.4 0.8 0.7 0.9 0 2.9-1.4 3.9-2.6 0.7-0.7 0.4-0.1 0.4-0.2 0.3-3.2 3.8-0.8 2.1-3 0-2.4 0.8-2 1.7-2.5-1-2.5-0.8-0.3-0.7-0.6-1-0.9-0.5-1.1 0.6-0.8 0-0.5-0.4 0 0-0.4 1.4-0.7 5.2-1.3 1.6-0.8 0.3-0.4 0.3 0.2 2.5 0.1 1.7 1.1 0.8 1.6z" id="TR60" name="Tokat" fill="none" stroke="#000000" stroke-width="0.6" data-area-id="46" /><path d="M638.8 118.8l3.9 14.9-0.1 3.5 1.7 2.6 2.7 1.4 2.9 2.2 3 1.8 4.8-1.2 5 1.6 4.8 2.4-0.2 3.1-1 2.4-2.2 0-2.1-0.4-2.5 0.6-2.3 1.6-2.3-0.4-2.2-1.7-2.1 1.2-1.8 5.2 0.4 1.9 3.3-0.1 3.5-0.9 1 1.2-0.5 1.7-1 0.2-0.9 0-1.8 0.9-1.2 2.1-2.3 3.1-0.6 6.4-1.1 2.2 0.6 2.3 1.7 1.6 1.5 1 1.1 1.5-0.4 1-1.7 1.1-0.5 0.5-0.4 0.5-0.4 0.5-0.6 0.1 0.2 0.7 0.1 1.1 0 2 0.6 1.8 0.3 1.8-0.2 1.1-0.1 1.2 0.3 0.9 0.2 1-0.4 2.1-1 1.6-3.7 1.3-3.4 2.6-3.1 0.9-3.2-0.5-1.7 0.3-1.6 0.7-3.7 0.1-1.8 0.9-1.7 1.1-1.8 0.8-1.7 1.1-3.9 0.9-4.1-2-2.1 0.5-1 2.4 0.5 2.9 0.8 2.7 0.6 1.3 0.3 1.3-0.8 2.3-3.4 3.7-2 1.3-1.1 0.4-2.4 2.9-2.4 2.2-2.8 1.3-10.7 0.9-1.2-0.6-1.2-0.7-6.1-0.9-6.3 1.5 0.1-2.5 1.2-2 0.3-0.9 0.2-1 1.9-5.6 1.3-4.8 0.9-2.3 1.1-2.2 2-5.8-1.7-5.4-3.8-2.1-4.1-0.7-4.4 0-4.3 1.4-2.4-0.8-2.3-1.8-7.9-1.1-3.6 1.3-4.7-0.7-4.5-3.3-1.6-0.2-1.5-0.6-0.4-0.5-0.6-1.3-0.4-0.6-2.3-1.2-2.5-0.2 1.8-2.1 2.1-1.6 1.5-2 1.2-2.3 1.4-2.3 1.7-2 4.1-3.2 3.4-3.4 1.4-5.1-0.1-1.4-0.5-1.4-1.6-0.9-2.3-4.1-1.4-4.5 11.1-2.2 7.9-0.4 7-2.7 1.5-1.6 0.9-2.4 1-3.7 1.3-3.6 1.7-1 1.8-0.6 5.4 0.8 1.7-0.8 6.3-1.6 4.4-0.6 4 0.2 4-0.6 1.7-1 1.7-1.3 0.6-0.2 0.7 0 1.8-0.4 1.7-0.7 2.8-4.1 2.5-4.9 2.6 5.1 3.6 2.9 1.7-0.2 1.4-1.1 1.4-1.9 1.7-1.3 4 0.2 1-0.6 0.2-1.1-0.5-0.7 0.1-1.8 0.5-0.8 1.9-0.4 2.2-0.2 1.6-0.8 1.4-1.2z" id="TR58" name="Sivas" fill="none" stroke="#000000" stroke-width="0.6" data-area-id="47" /><path d="M483.5 71.9l2.5 4.4 0.6 2.3 0.3 2.5 0.7 2.3 3.7-0.4 1.8 0.4 0.4 1.8-0.7 1.6-1 1.2-0.6 1.9-0.2 6.3-0.7 4.1 0.5 1.7 1.9 4.2 1.3 2.2 1.5 1 7.9 1.3 3.6 2.2 1.6 0.3 0.8 0.3 1.2 2.9 0 2.3-1.1 4.5-4.1 6.3-0.5 1.4 0 1.7-0.5 4.2-1.9 0.7-4.6 0.4-0.5 2.8 0.6 0.7-0.1 1-0.5 1.4-0.1 1.2-1.3 1.7-3.7 2.3-2.2 0.2-4-1.2-7.2 3.5-3.8 0.2-1.9-0.2-2.8 1.1-7.3-1.3-4.6 1.5-4.5 2.1-7.5 0.9-2.7 1.3 0-3.2 1.2-2.5 1-1.5 0.2-2.1-0.7-1.8 0-0.7-0.1-0.7-0.9-1-1.2-0.1-1.2-1.2-1.9-4.5-0.6-2.9 3.8-2.2 1-0.2 0.8-0.4 1.4-2.4 1.1-2.6 0.7-0.4 0.1-1.6-0.4-1.6-0.5-1.7-0.7-1.5-1.2-2-0.6-2.3 0.1-2.2-0.3-2.2-1.2-2.4-0.3-2.6 1-2.5 0.6-2.5-2.4-3.9 4.2-0.9 6.7-2.8 1.2-3.1-1.6-1.7-1-0.4-0.9-2.4 0.5-1.2 1.6-2 1.7-4.2 2.2-2 1.1-1.3 1.3-3.4 1.7-2.4 2.5-0.6 1.2 1.6 1.8-0.1 1 0.2 0.8 0.9 1.6 0.3 1.6-0.4 1.4 0.3 1.2 0.9 0.5 0.9 0.8 0.6 5.4 1.7 1-1.2 0.9-0.8 0.2-0.3 0.1-0.5 0.1-1.1 0.1-0.4z" id="TR19" name="Çorum" fill="none" stroke="#000000" stroke-width="0.6" data-area-id="48" /><path d="M493.1 83.4l14.7 4.2 2.9-0.5 1.6 0.9 6.9 5.3 1.6 2.8 1.6 0.4 3.6-0.2 1.8 0.3 6.3 0.1 3.7 1.8 2-0.5 1.7-1.4 2.2-1.5 1.4-2.5 0.9-2.9 1.9-1.2 1.7 0.6 1.3 1.5 0.6 1.4 0.8 1.4 5.1 3.7-1.4 0.7 0 0.4 0.4 0 0 0.5-0.6 0.8 0.5 1.1 1 0.9 0.7 0.6 0.8 0.3 1 2.5-1.7 2.5-0.8 2 0 2.4-2.1 3-3.8 0.8-0.3 3.2-0.4 0.2-0.4 0.1-0.7 0.7-3.9 2.6-2.9 1.4-0.9 0-0.8-0.7-0.9-0.4-1.1-0.3-1.3-0.7-1.2-1-3.8-1.1-4 0.3-1.2 1.5-2.1 4.7-1.4 2.5-1.3 1.9-1.4 1.6-1.6 0.7-0.9 0.3-2.6 1-1.4 1.6-1.9 4-2.3-0.8-2.5 0.2-2.1-0.2-0.9-0.6-0.4-1.3-0.4-0.2 0.5-4.2 0-1.7 0.5-1.4 4.1-6.3 1.1-4.5 0-2.3-1.2-2.9-0.8-0.3-1.6-0.3-3.6-2.2-7.9-1.3-1.5-1-1.3-2.2-1.9-4.2-0.5-1.7 0.7-4.1 0.2-6.3 0.6-1.9 1-1.2 0.7-1.6-0.4-1.8z" id="TR05" name="Amasya" fill="none" stroke="#000000" stroke-width="0.6" data-area-id="49" /><path d="M202.3 176.8l1.8 1.4 2.1 0.5 3.4 0.4 3.4-0.1 2.6-1.6 0.3-4.1 1-2.8 2.2-1.6 1.3-5 1-1 0.5-1.4 1-3.7 2.4-1.7 4.9 2 1.6 0.1 1.5-0.2 1.3-0.7 1.5-0.1-0.8 5.2 0.2 2.7 1.7 3.3 0.7 1 1.9 1.2 1.7 0.7 5.2 3.8 2.1 0.5 3.7-1 3.6-0.4 1.8-0.5 1.8 3 5.2 5 1.3 3.7 0.6 4.7 4.7 6.3 0.9 3.9-3.3 5.1-5.7 2.6-0.9 2.5-0.7 2.7-1.3 2.6-1.3 4.1-1.9 3.2-1.4 1.8-9.8 5.9 0-6.3-2.2-2.6-1.4-0.6-5.9-1.4-3 0.1-1.4 0.4-1.2 0.7-0.8 3.5-1.2 2.8-2.7 0.2-6 1.7-3.4 0.1-3.2-0.4-2.9-1.9-2.8 0-2.6 2.3 0.2-3.9-1-2.8-1.5-2.9 0.4-3.7-0.3-1.1-0.5-1-3.1-4.7-1.3-1-7.2-1.5-1-0.8-2.4-2.7 0.4-0.6-0.2-1.5-0.2-0.8 0.4-2.1 1.8-0.9 3.5-1.2 1.6-1.1 1.4-2.6 0.4-0.9 1.1-1.4 1.1-1.8 0.6-4.3 0.6-1.8 0.6-0.6 0.3-0.7 0-1.2 0.3-1.2 0.9-1.8z" id="TR43" name="Kütahya" fill="none" stroke="#000000" stroke-width="0.6" data-area-id="50" /><path d="M368 352.8l0.4-4-0.8-4-1-1.4-1.5-0.3-2.2-0.2-2-0.8-0.7-1.6 0.5-1.8 1.2-0.9-0.2-1.9-1.5-0.9-1.8-0.8-3.2-3-1.4-1-1.4-1.3-2.1-3-2.4-2.5-3.3-2.3-3-2.8-4-2.6-12.2-2.6-4.7 0-2.1-0.8-1.8-1.5-1.2-1.2-1-1.3 1.3-3.3 0.4-3.6-0.6-2.2-1.2-1.8 0-2.1 2.1-0.6 1.5-2 0.2-2.8 2-3.1-0.1-4.7-1.1-4.7 1-4 1.6-0.9 3.3-1.3 3-1.9 0.4-2-3.5-3-1.1-1.6-1.6-0.7-3.3-2.8-2.9-3.7-3.7-3-1.3-4.5 8.3-5.5 3.7-3.8 4.1-5.4 0.2-1.4-0.2-1.2-0.1-1.2 0.8-3.3 1.4-2.9 3.6-6 0.4-2.4-0.8-0.5-1.5-1.5 0.2-0.8 0.3-0.8 0.6-4 2.8 0.3 3.8-0.7 0.7-0.9 0.3-1.8 0.2-1.8 2 0.9 2.1 1.3 6.8 5.7 1.7 0.5 5-1.5 2.4-0.3 4 1.4 1.6 0.9 1.7 1.6 2 0.2 2.8-2.4 3-1.4 3.6 1.5 2.1-1.2 1.8-2.3 4.8-4 2.3 0.7 2.7 2.2 2.1 0.3 0.7-1.1 0.4-3.2 0.5-1.6 0.9-1.3 2 0 2.1 1.6 0.8 0.5 2.7 0.8 4.7 3.4 2.5 5.9 0.3 3.3-0.2 3.3-0.6 3.6 0.1 3.5 1 2.5 1.3 2.3 1.5 2.2 1 2.4-0.9 1.7-2.7 3.1-1.1 2-0.7 4.8-1.7 2.6-1.1 3.2-0.3 2.3-0.7 2-0.4 5 1.8 4.6 0.6 0.5 0.5 0.6 0.4 2.5 0.7 2.3 3.2 4 1.9 1.8 2.1 0.1 5.6-1.2 7.4-0.5 3.8 0.1 3.7-0.9 3.7-1.5 3.6-0.8 3.5 0.6 0.7 3.1 1.5 2.4 2.3 0.9 2.2 1.2 1.8 2.6 1.7 2.9 1.9 1.8 1.5 2.2 0.5 3.4-1.1 3.1-1.1 1.3-0.7 1.6-0.3 2.7 0 1.7 1.8 2.6 1.2 1 1.8 1.9 1.1 2.6-0.6 1.9-0.9 0.6-2.5 0.9-1.4 0.7-2.1 2.1-2.7 1.3-4.2 1.5-1.3 0.8-1.6 1.9-1.1-2.3-3.2-5.4-2.8-3.1-3.9-4.1-5.3-5.9-1.1-3.8 0.2-0.9-0.4-3-1.9-0.7-4.7-0.2-2.2 1.4-1.4 1.8-2.3 3.1-4.8 1.8-7.4 0.5-7.1 0.9-4.5 1.8-2.5 2.8-5.6 6.2-5.7 7.9-4.5 5.8-1.2 4 0.3 2.1 2.9 1.3 2.9 0.2 0.7 1.6-0.2 1.8-1.4 2.2-6.8 6.7-5.4 4.1z" id="TR42" name="Konya" fill="none" stroke="#000000" stroke-width="0.6" data-area-id="51" /><path d="M377.3 366.7l-0.9-1.9-1.9-1-1.6-1.1-1.3-1.6-1.9-4-1.7-4.3 5.4-4.1 6.8-6.7 1.4-2.2 0.2-1.8-0.7-1.6-2.9-0.2-2.9-1.3-0.3-2.1 1.2-4 4.5-5.8 5.7-7.9 5.6-6.2 2.5-2.8 4.5-1.8 7.1-0.9 7.4-0.5 4.8-1.8 2.3-3.1 1.4-1.8 2.2-1.4 4.7 0.2 1.9 0.7 0.4 3-0.2 0.9 1.1 3.8 5.3 5.9 3.9 4.1 2.8 3.1 3.2 5.4 1.1 2.3-3.3 1.3-3.6 0.3-1.7 0.7-4.6 3.5-3.5 0.7-1.7 0.9-1.2 0.1-1.6-0.5-3.9 0.4-3.8 1.5-6 0.5-2 0.6-1.7 1-1.5 1.4-1.6 1.1-1.8 0.6-1.5 1.9-0.6 2.6-1 1.7-1.7-0.4-0.4-0.7-0.1-0.5-0.6-0.3-1.4 0.5-2.1 1.4-0.8 0.3-1.8 0.3 0.1 1.9 1 1.2 0.8 1.4 0.4 1.7 0.7 1.6 1.2 0.5 0.9 1.2 1 0.8 2.5 0.7 2.2 1.6 1.1 1.8-1.2 1.6-1.8-0.7-1.7-0.9-0.7 0.1-0.7 0.3-0.7 1.9-0.5 2.1-1.2 1.2-1.5 0.2-2.9-0.1-2.8 0.6-2.7 1.3-2.9 0-3.1-0.8-3.1 0.4z" id="TR70" name="Karaman" fill="none" stroke="#000000" stroke-width="0.6" data-area-id="52" /><path d="M478.9 310.3l-3.3-0.8-3.3 1.4-1.5 0.9-1.6 0.6-3.5 0.1-1.1-2.6-1.8-1.9-1.2-1-1.8-2.6 0-1.7 0.3-2.7 0.7-1.6 1.1-1.3 1.1-3.1-0.5-3.4-1.5-2.2-1.9-1.8-1.7-2.9-1.8-2.6-2.2-1.2-2.3-0.9-1.5-2.4-0.7-3.1 15.7-23.4 2.7 0.4 4.1-1.2 2.7-0.1 1.3 0.7 2 2 2.4 0.7 5-1.9 3.3 9.2 2.8 2.9 7.7 0.1 1.3 4.1-0.5 2.5 0.3 2.6 0.9 2.1 0.5 2.2-2.2 1.4-0.2 3.1-0.8 3.6-6.2 6.3-4.7 0.8-2.4-0.8-2.4-0.2-1.5 2.2 0.2 3 1.2 3 0.3 1.7-0.7 2.5-0.7 0.7-0.7 0.6-1.2 1.9-0.2 1.3 0 2.8z" id="TR51" name="Nigde" fill="none" stroke="#000000" stroke-width="0.6" data-area-id="53" /><path d="M560.3 254.1l-2-2.1-1.2-3.2-1.8-2.8-2.5-1.1-3.8 1-3.7 2.1-2 1.7-2.1 5-1.3 1.9-2 4.1-2.6 3.5-17.6 12.2 1 11-2.5 1.2-5.8-2.3-4.3-1.1-8.2-0.7 0.8-3.6 0.2-3.1 2.2-1.4-0.5-2.2-0.9-2.1-0.3-2.6 0.5-2.5-1.3-4.1-7.7-0.1-2.8-2.9-3.3-9.2 1.3-2.6 1.9-2 4.2-6.7 0.2-2.9-0.5-2.8 0.2-2.8-3.3-4.3-2.2-4.4 1.3-3.1 1-3.3 0-1.5 0.1-1.5 0.5-1.3 0.7-1.1 10.7 1.7 5.4-3.4 2.1-0.7 15.4-10 4-5.6 2.5 0.2 2.3 1.2 0.4 0.6 0.6 1.3 0.4 0.5 1.5 0.6 1.6 0.2 4.5 3.3 4.7 0.7 3.6-1.3 7.9 1.1 2.3 1.8 2.4 0.8 4.3-1.4 4.4 0 4.1 0.7 3.8 2.1 1.7 5.4-2 5.8-1.1 2.2-0.9 2.3-1.3 4.8-1.9 5.6-0.2 1-0.3 0.9-1.2 2-0.1 2.5-1.6 1-0.9 1.9-0.6 3.2-1.5 2.4-3.7 4.3-1.5 2.2-1.7 1.8z" id="TR38" name="Kayseri" fill="none" stroke="#000000" stroke-width="0.6" data-area-id="54" /><path d="M314.6 308.3l-2.5-0.4-2.4 0.9-2.2 1.6-2.6 0.4-4.9 1.7-4.2-1.7-0.7-1.7-1-1.4-1.4-0.2-0.7 0.1-0.9-1.1-0.4-1-2.9-4.4-1.3-2.9-1.6-4.8-2.8-1.8-3 0.1-3.3-0.6-2.1-1.6-1.8-2-2.2-3-2.3-1.6-2.2 2.3-1.3 0.9-1.4 0.7-5.2 3.8-1.8 0.8-1.8-0.6-0.9-1.8-0.7-2 3.7-0.1 3.4-1.9 1.6-2.9 0.6-6.2 1-1.9 3.2-1.9 4.3-4.2 1.9-1.1 2.4-2.2 2.4-2.7 1.7-0.7 1.9-0.5 2.6-2.2 1-0.2 1.1-0.1 3.6-1.4 3-2.8 2.9-3.4 5.9-4.8 2.4-2.6 0.9-0.8 1.2 0.2 0.9 0.6 0.9 0.7 2.1 3.1 1.1 0.7 1.2 0.3 1.3 4.5 3.7 3 2.9 3.7 3.3 2.8 1.6 0.7 1.1 1.6 3.5 3-0.4 2-3 1.9-3.3 1.3-1.6 0.9-1 4 1.1 4.7 0.1 4.7-2 3.1-0.2 2.8-1.5 2-2.1 0.6 0 2.1 1.2 1.8 0.6 2.2-0.4 3.6-1.3 3.3z" id="TR32" name="Isparta" fill="none" stroke="#000000" stroke-width="0.6" data-area-id="55" /><path d="M128.9 189.6l3.6-1.9 2.2 1 2.1 1.7 3.3 1 3.3-0.5 2 0.2 1.9 0.9 0.7 0.1 1.5-0.3 0.8 0 1.2 1.9-1.4 2.6-0.6 2.1 1.9 0.9 3.5-1.3 0.8 0.4 0.3 0.9 3.9 4.3 2.5 5.5 2.1 0.7 2-0.8 2.1-0.4 1.8-1.1 1.3-1.7 1.9-0.4 2 0.2 1.8-0.2 1.8-0.5 4.4-2.2 4.1 0.6 2.4 2.7 1 0.8 7.2 1.5 1.3 1 3.1 4.7 0.5 1 0.3 1.1-0.4 3.7 1.5 2.9 1 2.8-0.2 3.9-1.7 1.7-3.7 2.9-0.5 1.2-1.4 1.6-1.4 0.5 0.2 2.1 1.3 0.5 1.1 1.3 0.2 1.4 0 1.4 0.4 3-0.3 2.8-0.7 1.9-0.9 1.5-1.3 1.2-0.5 0.9 1.2 0.9 1.5 0 1.7 2-4.4 1-2.1 4.1 0.2 1.6-0.6 1.5-2 0.9-2.1 0-6.5-0.1-2.1-3.2-2-6.2-1.3-1.7-2.1-0.6-1.1-0.1-1.7-0.5-0.9-1.1-1.3-0.2-1.8 0.6-4.6 0.7-1.3-3-2-2.1-1.4 0.4-1.4-0.1-2.3-1-2.3-0.1-0.8 1.9-1.1 2-2.4 0.6-2-1.9-0.4-0.9-0.5-1.9-0.4-0.9-3.7-1.7-3.3-2.3-0.8-3.4-1.5-1.4-0.9-0.2-5.4 0.2-3.3-0.3-2.8-2.5-1.3-4.2-1.1-1.4-0.7-0.3-1.3-1.3 0.2-1.3 1.3-2.2 1.5-1.5 0.8-2 0.3-2.4 0.6-2.2 2.6-1.8 3-1.2 3.1-2.6 1.3-1.5 0.3-3.2-1.7-3.3-0.8-2.2-1.6-7.4-1.8-4.7z" id="TR45" name="Manisa" fill="none" stroke="#000000" stroke-width="0.6" data-area-id="56" /><path d="M185.3 305l-0.2-0.9-0.4-0.8-0.5-0.4-0.5-0.2-0.6-2.2 1-2.2 3.3-1 3.7 0.4 2.5-2.4 2.2-3.1 1.9-0.1 1.4-1 0.2-1.7-0.5-1.4-3-0.6-1-1.5-0.8-1.6-1-1.4 0.1-1.5 1.1-0.8 0.4-1.3-0.7-3.6 0.1-2.1-0.6-1.7-2.7-1.9-0.6-1.3-0.5-1.4 2.1 0 2-0.9 0.6-1.5-0.2-1.6 2.1-4.1 4.4-1 2.9 0.6 2.5 1.6 2.7 0 2.4-1.7 1.7 0.3 1.5 1.7 1.6 0.1 1.5-0.5 0.7-0.4 0.6-0.3 1.2 0.8 0.5-0.1 0.7-1.2 0-0.7 2.4-1.9 3.4 0.4 3.6-0.1 1.7-0.5 1.5-1.4-0.4-3.6 0.5-3.6 5.9-1.3 6.5 1.5 5.1 8.6 1.3 1.5 0.7 4-1.3 1.5-12.8 9.6-1.5 0.8-1.5 0.6-0.7 1.8-0.1 6.1 1.2 0.5 2.2-0.1 0.6 0.3 1.3 0.7 0.7 0.2 0.5 0.4 2.2 3.7-3.4 2.8-2 1.2-0.7 0.3-1.4 0.8-0.6 1.3-0.5 1.3-6 3.3-0.1 1.5 0.5 1.7-0.1 2.4 0.6 2.2 0.4 0 0.2 0 0.3 0.3 0.3 0.4 0.2 0.9-0.1 0.5-2.1 4.2-4.7 7-1.3 2.9-0.8 3.1-0.4 3.2-2.2 1.8-0.3 3.9-0.6 1.5-0.9 1.3-1.7 0.8-4.7-2.6-2.6-0.2-1.2-1.1-0.2-1-0.1-1.9-0.4-2.3-0.7-2.3-2.8-2.8-3.5-1.6-0.6-0.6-0.8-1.6-0.6-0.6-3.5-0.6-1.6-2.3-0.7-2.7-1.4-2.5-2.2-0.9-1.7 0-1.2-0.4-0.5-1.8 0-1.7 0.2-1.2-0.6-1z" id="TR20" name="Denizli" fill="none" stroke="#000000" stroke-width="0.6" data-area-id="57" /><path d="M236.6 338.5l-4-5.6-5.7 0.8-2.3 2.9-1.9-0.7 0.8-3.5-1.1-3 0.4-3.2 0.8-3.1 1.3-2.9 4.7-7 2.1-4.2 0.1-0.5-0.2-0.9-0.3-0.4-0.3-0.3-0.2 0-0.4 0-0.6-2.2 0.1-2.4-0.5-1.7 0.1-1.5 6-3.3 0.5-1.3 0.6-1.3 1.4-0.8 0.7-0.3 2-1.2 3.4-2.8 3.8-1.4 4.2 0.3 0.7 2 0.9 1.8 1.8 0.6 1.8-0.8 5.2-3.8 1.4-0.7 1.3-0.9 2.2-2.3 2.3 1.6 2.2 3 1.8 2 2.1 1.6 3.3 0.6 3-0.1 2.8 1.8 1.6 4.8 1.3 2.9 2.9 4.4 0.4 1 0.9 1.1 0.7-0.1 1.4 0.2 1 1.4 0.7 1.7-3.3 2.9-0.9 2.6-2.9 3.1-1.8 0.5-3.7 0-4.3-0.5-6.6 0.3-1.1-0.4-2.9-3.6-2.9-0.4-7 3-2.9 0.5-8.6 4.4-2.6 3.6-0.7 4.4-1.9 3.5-1.3 1.3-1.1 1.6-1.3 0.7-1.4 0.2z" id="TR15" name="Burdur" fill="none" stroke="#000000" stroke-width="0.6" data-area-id="58" /><path d="M416 234.6l4.1-1.1 3.9-2.2 4.2-1.2 4.2 0.2 1.8-0.9 4-3.8 0.1-3.6-1.9-5.1 1.6-4.1 0.7 1 1.9 0.4 1.1-0.1 1.8 0.8 0.7 2.5 1.9 1.6 2.4-1.4 1-0.3 2 0.3 1-0.2-0.5 2.5 1.6 5.4-0.8 3.1-1.7 2.7 0.7 3.1 2.2 1.4 2.4 0.7 2-0.4 1 0.3 0.4 2.8-1.4 3.1 0 2.9 0.9 0.8 1.9 1.5 1.6 1.7 1.8 1.1-15.7 23.4-3.5-0.6-3.6 0.8-3.7 1.5-3.7 0.9-3.8-0.1-7.4 0.5-5.6 1.2-2.1-0.1-1.9-1.8-3.2-4-0.7-2.3-0.4-2.5-0.5-0.6-0.6-0.5-1.8-4.6 0.4-5 0.7-2 0.3-2.3 1.1-3.2 1.7-2.6 0.7-4.8 1.1-2 2.7-3.1 0.9-1.7z" id="TR68" name="Aksaray" fill="none" stroke="#000000" stroke-width="0.6" data-area-id="59" /><path d="M484.8 250.7l-5 1.9-2.4-0.7-2-2-1.3-0.7-2.7 0.1-4.1 1.2-2.7-0.4-1.8-1.1-1.6-1.7-1.9-1.5-0.9-0.8 0-2.9 1.4-3.1-0.4-2.8-1-0.3-2 0.4-2.4-0.7-2.2-1.4-0.7-3.1 1.7-2.7 0.8-3.1-1.6-5.4 0.5-2.5 5.3 4.5 1.9-0.5-0.2-1.4-0.5-2.7 1-3.3 5.7-2.4 2.6-1.6 3-1.3 1.9-2.6-1-2.3-1.4-2.5 0.6-4-0.6-3.1-1-1.9-0.4-2.2 0.2-1.4 1-0.6 3 0.8 2.8-0.5 0.7 0.2 1.4 0.6 0.4 0.8 0.2 1.3 0.4 1.2 1.2 1.4 1.5 0.8 1 1.9 0.6 2.4 3.8 2.4 1.1 1.9-0.5 1.4 0.2 1.4 0.4 1.3 0.7 1.5 0.7 1.5-0.7 1.1-0.5 1.3-0.1 1.5 0 1.5-1 3.3-1.3 3.1 2.2 4.4 3.3 4.3-0.2 2.8 0.5 2.8-0.2 2.9-4.2 6.7-1.9 2-1.3 2.6z" id="TR50" name="Nevsehir" fill="none" stroke="#000000" stroke-width="0.6" data-area-id="60" /><path d="M513 139.7l3.3 3.7 3.8 2.6 4.4-0.4 3.7 0.8 2.2-0.2 2.3-0.5 1.9-0.8 2-0.6 2 1.9-0.3 3.5-0.1 2.4 0.9 1.8 0.9 0.9 0.5 1.3 1.4 4.5 2.3 4.1 1.6 0.9 0.5 1.4 0.1 1.4-1.4 5.1-3.4 3.4-4.1 3.2-1.7 2-1.4 2.3-1.2 2.3-1.5 2-2.1 1.6-1.8 2.1-4 5.6-15.4 10-2.1 0.7-5.4 3.4-10.7-1.7-0.7-1.5-0.7-1.5-0.4-1.3-0.2-1.4 0.5-1.4-1.1-1.9-3.8-2.4-0.6-2.4-1-1.9-1.5-0.8-1.2-1.4-0.4-1.2-0.2-1.3-0.4-0.8-1.4-0.6-0.7-0.2-1.3-2.9-2-1.8-2.4-0.4-2.1-1.4-6.6-8-0.6-1.3-0.4-1.4-0.9-1.3-3.7-0.1-2.2-0.7-2.4-2.7-2.5-2.3-2.6-0.1-0.9-0.8-1-1-0.5-1.3 0.2-1.3-0.2-1.3-0.5-1.2 2.7-1.3 7.5-0.9 4.5-2.1 4.6-1.5 7.3 1.3 2.8-1.1 1.9 0.2 3.8-0.2 7.2-3.5 4 1.2 2.2-0.2 3.7-2.3 1.3-1.7 0.1-1.2 0.5-1.4 0.1-1-0.6-0.7 0.5-2.8 4.6-0.4 1.9-0.7 0.4 0.2 0.4 1.3 0.9 0.6 2.1 0.2 2.5-0.2 2.3 0.8z" id="TR66" name="Yozgat" fill="none" stroke="#000000" stroke-width="0.6" data-area-id="61" /><path d="M438 212.8l0.4-2-3-1.1-0.6-0.7-1.6-0.6-2.5-0.2-1-0.7-0.7-1.2-0.7-0.6-0.8-0.3-2.4-2-5.4-3.4-0.9-3.4 5.3-9.3 7.7-6.3 3.3-5.2 2.1-6.3 7.6-7.3 1 1 0.9 0.8 2.6 0.1 2.5 2.3 2.4 2.7 2.2 0.7 3.7 0.1 0.9 1.3 0.4 1.4 0.6 1.3 6.6 8 2.1 1.4 2.4 0.4 2 1.8 1.3 2.9-2.8 0.5-3-0.8-1 0.6-0.2 1.4 0.4 2.2 1 1.9 0.6 3.1-0.6 4 1.4 2.5 1 2.3-1.9 2.6-3 1.3-2.6 1.6-5.7 2.4-1 3.3 0.5 2.7 0.2 1.4-1.9 0.5-5.3-4.5-1 0.2-2-0.3-1 0.3-2.4 1.4-1.9-1.6-0.7-2.5-1.8-0.8-1.1 0.1-1.9-0.4-0.7-1z" id="TR40" name="Kirsehir" fill="none" stroke="#000000" stroke-width="0.6" data-area-id="62" /><path d="M205.4 229.4l2.6-2.3 2.8 0 2.9 1.9 3.2 0.4 3.4-0.1 6-1.7 2.7-0.2 1.2-2.8 0.8-3.5 1.2-0.7 1.4-0.4 3-0.1 5.9 1.4 1.4 0.6 2.2 2.6 0 6.3-0.3 2.5-0.7 2.3-2.9 2.8-0.6 2.4-0.9 2.5-1.1 1.4 0.1 1.7-5.9 1.3-0.5 3.6 0.4 3.6-1.5 1.4-1.7 0.5-3.6 0.1-3.4-0.4-2.4 1.9 0 0.7-0.7 1.2-0.5 0.1-1.2-0.8-0.6 0.3-0.7 0.4-1.5 0.5-1.6-0.1-1.5-1.7-1.7-0.3-2.4 1.7-2.7 0-2.5-1.6-2.9-0.6-1.7-2-1.5 0-1.2-0.9 0.5-0.9 1.3-1.2 0.9-1.5 0.7-1.9 0.3-2.8-0.4-3 0-1.4-0.2-1.4-1.1-1.3-1.3-0.5-0.2-2.1 1.4-0.5 1.4-1.6 0.5-1.2 3.7-2.9 1.7-1.7z" id="TR64" name="Usak" fill="none" stroke="#000000" stroke-width="0.6" data-area-id="63" /><path d="M667.5 148l2 0.1 4.2-0.3 1.9-0.9 1.3 0.8 1.4 0.6 1.4 0.3 1.4 0.3 5.2 3.1 1.8 0.7 1.8 1.1 0.7 1.1 0.8 0.8 2.9 0.9 2.8 1.4 2.9 0.3 2.8-0.3 2.8 0.2 2.7-0.2 2.6-1.3 5.3-1.3 2.1-2.2 1.8-2.7 2.5-1 2.7 0.3 2.4-0.3 1.9-1.8 2.3-0.8 7.7 1.5-1.4 3.3-0.4 3.6 2.5 1.3 8.1 0.1 3.2 4.2-0.1 1.8 0.2 1.7 0.7 1.2 0.8 1.1 1.8 1.4 2 0.8 1.6 1.8-1.1 2.6-1.7 3.1-0.1 3.9-3.1-1.1-3.9-0.1-3.8-0.6-7.1-0.2-0.9-0.5-1.8-0.7-0.5 0-0.2 0.2-1.5 0.4-1.8 0.9-1 0.1-4.4 1.6-3.7-1-2.5-1.5-1.8 0.6-2.2 2.7-3.3 1.1-7.2 1.1-3.8 0.1-3.6-1-3.7-0.2-1.9 1-2 0.5-2.4-0.4-2.5 0.5-4.7 1.8-1.3 1-0.9 1.7-1.2 0.6-1.3-0.1-0.7 1-0.6 1-0.5 0.3-2.9 1.1-0.7 1.9 0.6 1.9 0.7 1.1-1.3 0.8-1.3 0.3-1.1 0.7-0.7 3.5-1.1 0.5-0.2 0-0.4 0.4-0.2 1.4 0.2 1.4 0.4 0.3 0.4 0.4 0.4 3.8-1.5 0.3-1.2 0.6-3.1-3.6-2-1.2-2.2-0.9-4.5-0.2-3.7-1.9 1-1.6 0.4-2.1-0.2-1-0.3-0.9 0.1-1.2 0.2-1.1-0.3-1.8-0.6-1.8 0-2-0.1-1.1-0.2-0.7 0.6-0.1 0.4-0.5 0.4-0.5 0.5-0.5 1.7-1.1 0.4-1-1.1-1.5-1.5-1-1.7-1.6-0.6-2.3 1.1-2.2 0.6-6.4 2.3-3.1 1.2-2.1 1.8-0.9 0.9 0 1-0.2 0.5-1.7-1-1.2-3.5 0.9-3.3 0.1-0.4-1.9 1.8-5.2 2.1-1.2 2.2 1.7 2.3 0.4 2.3-1.6 2.5-0.6 2.1 0.4 2.2 0 1-2.4 0.2-3.1z" id="TR24" name="Erzincan" fill="none" stroke="#000000" stroke-width="0.6" data-area-id="64" /><path d="M666.7 210.6l-0.4-3.8-0.4-0.4-0.4-0.3-0.2-1.4 0.2-1.4 0.4-0.4 0.2 0 1.1-0.5 0.7-3.5 1.1-0.7 1.3-0.3 1.3-0.8-0.7-1.1-0.6-1.9 0.7-1.9 2.9-1.1 0.5-0.3 0.6-1 0.7-1 1.3 0.1 1.2-0.6 0.9-1.7 1.3-1 4.7-1.8 2.5-0.5 2.4 0.4 2-0.5 1.9-1 3.7 0.2 3.6 1 3.8-0.1 7.2-1.1 3.3-1.1 2.2-2.7 1.8-0.6 2.5 1.5 3.7 1 4.4-1.6 1-0.1 1.8-0.9 1.5-0.4 0.2-0.2 0.5 0 1.8 0.7 0.9 0.5 7.1 0.2 3.8 0.6 3.9 0.1-1.8 2.3-2.4 1.1-1.3-0.1-2.2-0.4-0.8 0.7-1.3 2.7-2.2 1.6-2.3 0-2.2 0.8-0.4 1.2-0.4 1-0.7 0.3-3.3-0.2-2.4 0.8-0.7 1.2-0.2 3-0.6 1.6-0.2 1.6 1 4.6-0.4 2.1-0.8 1.9-2.6 0.1-2.3 0.6-0.9 0.6-0.7 1 0.5 2.3 0.3 2.2-0.7 2.9-1.3 2.6-2.9 3.2-4.4 1.7-4.6 0.4-1.7-0.2-1.7 0.4-1.2 1.5-1.4 1.1-1.2-0.4-1.2-0.6-0.8 0.2-0.4 0.1-1.1-1.3-0.9-0.7-2.1-0.6-2-1.5-2.2-1-2-0.2-1.9-0.6-1.5-0.1-1.5-0.9-0.5 0-0.9 0.2-0.5 0.1-2-0.9-3.7 0.3-3.7 1-1.4-0.1-2-2 0-1.7 0.7-1.6-0.1-1.8-1.8-2.7z" id="TR62" name="Tunceli" fill="none" stroke="#000000" stroke-width="0.6" data-area-id="65" /><path d="M272.4 200.3l1.7 0.4 1.3 1.3 0.7 1.9 1.1 1.4 0.8 0.5 0.8 0.6 2.1 1.2 2.2-0.4 1.7-0.8 3.2-2.1 3-3 1.6-1.3 2.4 1.1 2.1 2.4 3.4-1.5 3.5-2.7 1.8-0.5 1.7-1.1 1.7-1.5 1.9-0.5 3.4 3.5 2.3 5.4 3.6 2.7 6.1-0.6 3.7 0.1 1.8 0.5-0.6 4-0.3 0.8-0.2 0.8 1.5 1.5 0.8 0.5-0.4 2.4-3.6 6-1.4 2.9-0.8 3.3 0.1 1.2 0.2 1.2-0.2 1.4-4.1 5.4-3.7 3.8-8.3 5.5-1.2-0.3-1.1-0.7-2.1-3.1-0.9-0.7-0.9-0.6-1.2-0.2-0.9 0.8-2.4 2.6-5.9 4.8-2.9 3.4-3 2.8-3.6 1.4-1.1 0.1-1 0.2-2.6 2.2-1.9 0.5-1.7 0.7-2.4 2.7-2.4 2.2-1.9 1.1-4.3 4.2-3.2 1.9-1 1.9-0.6 6.2-1.6 2.9-3.4 1.9-3.7 0.1-4.2-0.3-3.8 1.4-2.2-3.7-0.5-0.4-0.7-0.2-1.3-0.7-0.6-0.3-2.2 0.1-1.2-0.5 0.1-6.1 0.7-1.8 1.5-0.6 1.5-0.8 12.8-9.6 1.3-1.5-0.7-4-1.3-1.5-5.1-8.6-6.5-1.5-0.1-1.7 1.1-1.4 0.9-2.5 0.6-2.4 2.9-2.8 0.7-2.3 0.3-2.5 9.8-5.9 1.4-1.8 1.9-3.2 1.3-4.1 1.3-2.6 0.7-2.7 0.9-2.5 5.7-2.6 3.3-5.1z" id="TR03" name="Afyonkarahisar" fill="none" stroke="#000000" stroke-width="0.6" data-area-id="66" /><path d="M418.8 196.6l-3.8-7.4-1.9-8.8-1.3-2.3-3.8-4.6-1.2-5.3 1.4-5.2 1.2-5.2 2.2-5.3 3.5-1.5 5.5-0.6 0.6-3.6-0.3-3.7 0-4.2 0.6-3.5 0.6-5.1 13.1 4.2 4.4 0.4 0.6 2.9 1.9 4.5 1.2 1.2 1.2 0.1 0.9 1 0.1 0.7 0 0.7 0.7 1.8-0.2 2.1-1 1.5-1.2 2.5 0 3.2 0.5 1.2 0.2 1.3-0.2 1.3 0.5 1.3-7.6 7.3-2.1 6.3-3.3 5.2-7.7 6.3-5.3 9.3z" id="TR71" name="Kinkkale" fill="none" stroke="#000000" stroke-width="0.6" data-area-id="67" /><path d="M613.5 302.5l-0.1 1.8 0.3 1.7-0.6 2.7-2 1.4-3-0.1-3 0.4-6.3 2.2-6 1.1-2.6 1.3-4.3 4.6-3.7-1.2-1.3-5.3-2.3-1.5-2.3 3.1-5.7 2.6-2.1-3.1-2.6-2.4-1.6-1.1-1.8-0.5-3.9 0.8-1.3 0.3-1.8 0.6-1.6 0.3-0.8-0.9-0.6 0.3-0.5 0.2-0.5 0.2-0.3 0.6-0.5 0.1-1.9-2.4-0.3-4-0.5-0.7-0.6-0.7-0.6-1.7 0.4-1.8 1.3-1.4 1.1-1.8 0-4.7 1.3-1.7 0.9-0.5 1.6-1.6 0.1-2.4-1.5-3.7-0.3-2.9 0.1-1.8 0.6-4 1.4-3.8 2.4-10.7 1.5-3.8 2.6-2.5 1.7-1.8 1.5-2.2 3.7-4.3 1.5-2.4 0.6-3.2 0.9-1.9 1.6-1 6.3-1.5 6.1 0.9 1.2 0.7 1.2 0.6 10.7-0.9-2.8 4.7 0.6 3.6 0.8 0 1.8-0.4 0.9-0.1 7 1.5 6.1 3.6 3.2 1 3.7 1.7 2.4 4.1-0.3 2.5-2.6 6.9-0.3 1.8-0.9 1.4-0.7 0.8-1.1 1.8-2.5 8.8-1.9 3.6-2.3 2.9-2.7 2.3-1.8 2.4-0.1 3.5 1.7 2.8 2.8 1 5.2 3.2z" id="TR46" name="K. Maras" fill="none" stroke="#000000" stroke-width="0.6" data-area-id="68" /><path d="M841.7 182.8l1.4 3.8 1.9 3.4 1.5 1.4 1.5 1.7 0.8 1.7 1.2 1.2 1.7 2.5-0.2 4 0.2 0.8 0.1 0.9-0.5 2.4-0.4 3 0.2 3.2-3.5 2.8-3.9 1.5-7.7-0.9-1.7 0.6-1.5 1.1-1.9 0.8-2.1 0.2-0.9 0.7-0.6 2.8-1 0.9-4.2-0.1-0.9 2.2 1.5 2.4 0.3 2.6-2 1.7-2.8 3.1-3.3 1.9-8.1-0.6-7.3 2.8-0.5 0.8-2.7 0.3-2.6 0.9-1.4-0.5-0.6-1.6 0.6-2.5-0.6-2.4-3.2-2.3-2.4-3.2-0.3-1.6-0.6-1.4-1-0.9-0.6-0.2-1-1.4-1-3.5 1.4-4.8 3.3-4.1 0.6-2.4-0.3-2.7-1.3-2.4-0.9-0.9-1.1-1.9 0.1-1.9 0-1-0.4-1.1-0.3-0.5-0.8-1.8 0.3-1.4 1.3-2.4 7.6-1.3 3.8 0.9 1.8 1.2 4.6 4.6 2.8 3.9 1.1 1 4.1 1.6 4.1 0.2 1.8-1.4 2-1.2 5.8-1 1.5-1.3 0.9-1.1 3.2-2 1.4-2.3-0.3-2.8 1-2.7 6.5-3.3 1.8-0.1 1.8-0.3 0.9-0.3z" id="TR49" name="Mus" fill="none" stroke="#000000" stroke-width="0.6" data-area-id="69" /><path d="M834.5 93.6l1 4.9 2.4 3.7 1.8 1.2 1.3 1.7 1 2.4 1.4 2.1 1.9 1.9 1.4 2.6-0.3 2.1-0.7 2.2 1.1 6.2-1.9 1.2-2 0.9-1.6 1.1-1.5 1.2-3 1.7-6.9 2.4-1.5 3.3 1.7 2 1 1.7 1.1 1.3 4.1 0.7 1.5 0.5 1.4 1 0.8 1.1 0.6 1.3 0.8 0.6 1 0.3 1.9 0.8 1.2 1.9 1.1 2.5 1.4 2.3-1.3 1.5-1.6 0.9-1.2-0.1-0.6 0.1-1.2 0.5-1 1.5-1.7 0.6-3.6-0.6-1.7 0.7 3.9 4.7 6.7 2.8-0.6 0.4-0.5 1.7 0.1 8.3-0.5 2.9-1.5 2.5-0.9 0.3-1.8 0.3-1.8 0.1-6.5 3.3-1 2.7 0.3 2.8-1.4 2.3-3.2 2-0.9 1.1-1.5 1.3-5.8 1-2 1.2-1.8 1.4-4.1-0.2-4.1-1.6-1.1-1-2.8-3.9-4.6-4.6-1.8-1.2-3.8-0.9-7.6 1.3-2-3.5-2.1-2.5-2.9-0.3-3.5-1.7-4.6-4.3-1.5-0.9-1.4 0.7-1.4 1-4.2 1.9-4.2-0.6 0.1-3.9 1.7-3.1 1.1-2.6-1.6-1.8-2-0.8-1.8-1.4-0.8-1.1-0.7-1.2-0.2-1.7 0.1-1.8-3.2-4.2-8.1-0.1-2.5-1.3 0.4-3.6 1.4-3.3 7.8 1 1.7-0.3 2.1-1.6 2-2 2.7-1.3 5.9-2.1 1.3-1.7 1.2-2.2-0.2-1.2-3.1-0.3-1.4-0.6-3.1-0.7-2.9-1.7-1.2-3.8-1.4-8.5-1.5-3.8 7.7-3.8 1.9-0.6 1.9-0.2 2.9-0.8 1.4-3.6 1.7-0.7 2.1 0 2-0.7 5.1-4.4 3.6-2.1 3.7 2.1 5.9 0.9 1.7 0.6 0.4 2.1-1.3 2.2-0.6 5.3 3.2 2.9 4.4-1.7 4-2.6 3.7-1.1 3.8 1.1 4 2.3 2.2-3.3 0.1-2.8 0.9-2.5 1.9-1.9 1.2-2.5-0.3-2.7 0.6-2.5 1.5-1.3 1.6-0.8 3.2-0.3 3.3 0.3 2.8-0.6 2.8-0.3z" id="TR25" name="Erzurum" fill="none" stroke="#000000" stroke-width="0.6" data-area-id="70" /><path d="M597.3 237.1l2.8-1.3 2.4-2.2 2.4-2.9 1.1-0.4 2-1.3 3.4-3.7 0.8-2.3-0.3-1.3-0.6-1.3-0.8-2.7-0.5-2.9 1-2.4 2.1-0.5 4.1 2 3.9-0.9 1.7-1.1 1.8-0.8 1.7-1.1 1.8-0.9 3.7-0.1 1.6-0.7 1.7-0.3 3.2 0.5 3.1-0.9 3.4-2.6 3.7-1.3 3.7 1.9 4.5 0.2 2.2 0.9 2 1.2 3.1 3.6-3.4 0.2-1.3 1.7 0 2.5 0.8 1.6 0.6 1.8 0.2 3.7 0 1.4 0.6 1.8-0.2 0.4 0.1 0.8-0.1 0.6-0.6 0.3-5.2-0.5-1.2 0.2-0.6 0.7 0.3 1-0.3 1.1-0.5 0.9-0.7 0.4-1.2 0.2-0.9 0.5-0.7 0.8-0.6 0.9-0.2 0.7-0.3 1.1-0.7 1.3 0.1 0.4 0.3 0.3 0.2 0.6 0.1 1 0.4 1.2 0.7 1.1 0.7 0.7 0.6-0.6 0.5 0.3 0.8 1.1 0.7 0.6 0.6 0.3 0.6 0.2 2.7 0.4 1.3 0.3 0.2 0.1 0.8 0.8 0.3 0 0.3-0.2 0.4 0 3.8 2 1.4 0.1 2.9-1.1 1.5-0.2 1.1 0.8-0.3 0.5 1.2 0.8 0.4 0.4 1.1 1.8 0 0.3 1.3 0.2 0.8 0.5 1.4 1.3 1.6 0.3 3.9-1.3 1.9 0.2 0.9 0.9 0.6 1.3 0.1 1.4-1.6 5.6-2.1 2.5-2.6 1.2-2 0.5-1.9 0.9-1.3 0.3-1.4 0-3.5 0.7-3.3-0.4-3.3 0-2.8-0.8-0.8-0.5-0.8-0.4-0.3-1.3 1-0.6 1.8-1.8-0.2-1.9-2.8-0.6-2.8 0.8-3.3 0.1-3.5 3.9-3 4.5-3.7 2.1-1.2 2.3-0.1 3.2-2.9 2.6-4 1-1.7 0.8-1.7 0.6-2-0.3-2-0.6-4.4 0.6-4.2 1.7-6.7 1.3 1.9-3.6 2.5-8.8 1.1-1.8 0.7-0.8 0.9-1.4 0.3-1.8 2.6-6.9 0.3-2.5-2.4-4.1-3.7-1.7-3.2-1-6.1-3.6-7-1.5-0.9 0.1-1.8 0.4-0.8 0-0.6-3.6 2.8-4.7z" id="TR44" name="Malatya" fill="none" stroke="#000000" stroke-width="0.6" data-area-id="71" /><path d="M664 211.5l1.2-0.6 1.5-0.3 1.8 2.7 0.1 1.8-0.7 1.6 0 1.7 2 2 1.4 0.1 3.7-1 3.7-0.3 2 0.9 0.5-0.1 0.9-0.2 0.5 0 1.5 0.9 1.5 0.1 1.9 0.6 2 0.2 2.2 1 2 1.5 2.1 0.6 0.9 0.7 1.1 1.3 0.4-0.1 0.8-0.2 1.2 0.6 1.2 0.4 1.4-1.1 1.2-1.5 1.7-0.4 1.7 0.2 4.6-0.4 4.4-1.7 2.9-3.2 1.3-2.6 0.7-2.9-0.3-2.2-0.5-2.3 0.7-1 0.9-0.6 2.3-0.6 2.6-0.1 10.9-5.9 1.6-0.5 3.9-1.7 1.5 2.9-2 3.9-2.4 3.3-1 4.3 1.2 4.8 2.9 3.5 0.8 2-0.3 2.2-0.6 2.4-0.9 1.6-1.6-0.5-1.4-0.3-2.3 6.4 2.6 3.8 0.5 2.7 0.2 2.8-15.9 0.5-0.8-0.3-1.7-1.3-1-0.5-2.2 0.4-0.7 2-1.1 1.9-1.2 1.9-1.4 0.9-1.6 0.6-3.7-0.2-3.6 0.3-1.3 0.8-3.7 0.5-2 0.8-4-0.3-3.9-1-6.6 1.1-1.9-0.2-3.9 1.3-1.6-0.3-1.4-1.3-0.8-0.5-1.3-0.2 0-0.3-1.1-1.8-0.4-0.4-1.2-0.8 0.3-0.5-1.1-0.8-1.5 0.2-2.9 1.1-1.4-0.1-3.8-2-0.4 0-0.3 0.2-0.3 0-0.8-0.8-0.2-0.1-1.3-0.3-2.7-0.4-0.6-0.2-0.6-0.3-0.7-0.6-0.8-1.1-0.5-0.3-0.6 0.6-0.7-0.7-0.7-1.1-0.4-1.2-0.1-1-0.2-0.6-0.3-0.3-0.1-0.4 0.7-1.3 0.3-1.1 0.2-0.7 0.6-0.9 0.7-0.8 0.9-0.5 1.2-0.2 0.7-0.4 0.5-0.9 0.3-1.1-0.3-1 0.6-0.7 1.2-0.2 5.2 0.5 0.6-0.3 0.1-0.6-0.1-0.8 0.2-0.4-0.6-1.8 0-1.4-0.2-3.7-0.6-1.8-0.8-1.6 0-2.5 1.3-1.7 3.4-0.2z" id="TR23" name="Elazig" fill="none" stroke="#000000" stroke-width="0.6" data-area-id="72" /><path d="M851.1 212.8l2-1.3 2.3-0.7 1.6-1 1.6-1.3 8.8-1.9 0.1 4.6 1.4 3.1 5.6 3.4 1.9 3-1.4 4.5-3.4 2.6-2.6 2.8-4.4 6.5-0.8 1.9-1 1.7-3 2.1-5.1 2.9-0.8 0.9-0.5 2.5 0.3 1.3 1.7 3.9 0.2 0.7 0.1 1.6-0.5 2.1 0.9 3.1 2.5 0.9-1.3 4-0.6 0.7-0.5 0.8 0 1.8 0.2 1.9-0.2 2.8-1.4 2.1-1.8 0.2-3.2-2.4-4.8-2.7-3-2.2-2.1-0.9-3.3-0.8-3.4-1.4-3.1-2.4-2.8-2.8-3.2-1.5-4.1 1.6-4.1 1-5.1-0.4-4.9-1.9-0.1-1.3 0.2-1.4 0-2.2-0.2-2.2-1.1-3.3-1.7-8.2-4-1.5 0.5-0.8 7.3-2.8 8.1 0.6 3.3-1.9 2.8-3.1 2-1.7-0.3-2.6-1.5-2.4 0.9-2.2 4.2 0.1 1-0.9 0.6-2.8 0.9-0.7 2.1-0.2 1.9-0.8 1.5-1.1 1.7-0.6 7.7 0.9 3.9-1.5 3.5-2.8z" id="TR13" name="Bitlis" fill="none" stroke="#000000" stroke-width="0.6" data-area-id="73" /><path d="M752.6 179.2l3.1 1.1 4.2 0.6 4.2-1.9 1.4-1 1.4-0.7 1.5 0.9 4.6 4.3 3.5 1.7 2.9 0.3 2.1 2.5 2 3.5-1.3 2.4-0.3 1.4 0.8 1.8 0.3 0.5 0.4 1.1 0 1-0.1 1.9 1.1 1.9 0.9 0.9 1.3 2.4 0.3 2.7-0.6 2.4-3.3 4.1-1.4 4.8 1 3.5 1 1.4 0.6 0.2 1 0.9 0.6 1.4 0.3 1.6-2.3 1.7-5.8 2.2-5.9 3.6-3.1 0.9-8.1-0.3-2.3-0.6-1.7-0.2-4.6 0.7-2.7 1.3-0.3 1.7 0 1.8-1.3 2-1.9 0.9-5.5 0.2-0.2-2.8-0.5-2.7-2.6-3.8 2.3-6.4 1.4 0.3 1.6 0.5 0.9-1.6 0.6-2.4 0.3-2.2-0.8-2-2.9-3.5-1.2-4.8 1-4.3 2.4-3.3 2-3.9-1.5-2.9-3.9 1.7-1.6 0.5-10.9 5.9 0.8-1.9 0.4-2.1-1-4.6 0.2-1.6 0.6-1.6 0.2-3 0.7-1.2 2.4-0.8 3.3 0.2 0.7-0.3 0.4-1 0.4-1.2 2.2-0.8 2.3 0 2.2-1.6 1.3-2.7 0.8-0.7 2.2 0.4 1.3 0.1 2.4-1.1 1.8-2.3z" id="TR12" name="Bingöl" fill="none" stroke="#000000" stroke-width="0.6" data-area-id="74" /><path d="M570.6 317.3l-2.2 2.5-1.8 2.8-2.6 5.1-3.3 4.2-1.8 1.7-1.1 2.2-2.4 0.3-2.4-0.1-1.8-1.1-1.6-1.7-2.1-0.7-2.3 0.6-1.9 0-2-0.6-2.1 0.4 1.4-3.6 0.7-3.1-0.6-3.4-0.4-0.8-1.3-1.1-3.1-0.6-1 0.1-1.4-4.4 0-4.6 3.1-7.7 2.7-6.2 2.2-3.7 4.5-0.3 3.6 0 0 4.7-1.1 1.8-1.3 1.4-0.4 1.8 0.6 1.7 0.6 0.7 0.5 0.7 0.3 4 1.9 2.4 0.5-0.1 0.3-0.6 0.5-0.2 0.5-0.2 0.6-0.3 0.8 0.9 1.6-0.3 1.8-0.6 1.3-0.3 3.9-0.8 1.8 0.5 1.6 1.1 2.6 2.4 2.1 3.1z" id="TR80" name="Osmaniye" fill="none" stroke="#000000" stroke-width="0.6" data-area-id="75" /><path d="M687.8 271l-1.9 1.3-2.9 0.9-0.8 0.4-0.6 0.7-0.2 0.9-0.2 2-0.5 0.9-0.6 0.4-2.3 0.8 0.4 0.9 0.1 0.7-0.3 0.8-0.6 0.9 0.3 0.3 0.1 0.4-0.1 0.5-0.3 0.5-0.3-0.1-0.9-0.3-0.4 0-0.7 0.2-0.7 0.5-0.5 0.8-0.4 0.9 0.7-0.2 1.3-0.9 0.6-0.1 0.5 0.5-0.1 1.5 0.6 0.9-0.9 0.2-1.1 0.1-1 0.2-0.6 0.7 0.4 0.3 1.2 1.3-0.3 0.3-0.4 0.2-0.4 0-0.8-0.6-0.4 0.3-0.2 0.5-0.2 0.2-0.2 0.1-0.3 0.1-0.3 0.1-0.4 0.1-0.2-0.1-0.6-0.6-0.1-0.2-1 0.6 0.9 1 2.3 1.8-10.5 1.6-2.3 2.4-0.5 0.3-0.6 1-2.8 3.1-1 0.6-5.8 1-1.5-0.6-2.8 1-0.5 0-0.3 1.4-0.7 0.3-2.1-0.3-0.4 0.3-0.1 0.8 0.1 0.7-0.2 0.3-0.2 0.1-0.1 0.1-0.1 0.1-0.2 0.1-0.2-0.1-0.1-0.5-0.2-0.2-2.1-0.5-0.9-0.4-0.6-0.8-1.4 1-0.5 0-0.7-0.5-3.7-3.3-5.6-2.1-5.2-0.1-5.2 1.1-5.2-3.2-2.8-1-1.7-2.8 0.1-3.5 1.8-2.4 2.7-2.3 2.3-2.9 6.7-1.3 4.2-1.7 4.4-0.6 2 0.6 2 0.3 1.7-0.6 1.7-0.8 4-1 2.9-2.6 0.1-3.2 1.2-2.3 3.7-2.1 3-4.5 3.5-3.9 3.3-0.1 2.8-0.8 2.8 0.6 0.2 1.9-1.8 1.8-1 0.6 0.3 1.3 0.8 0.4 0.8 0.5 2.8 0.8 3.3 0 3.3 0.4 3.5-0.7 1.4 0 1.3-0.3 1.9-0.9 2-0.5 2.6-1.2 2.1-2.5 1.3 0.8 3.8-1.6 1.5 1.6 0.2 1.6-0.4 1.3-1.1 2.5 0.4 0.8-0.4 0.8-1.7 1.2z" id="TR02" name="Adiyaman" fill="none" stroke="#000000" stroke-width="0.6" data-area-id="76" /><path d="M777.3 287.7l-3 1.5-16.6-0.5-5.2 1.1-0.6 1.4-2.3 3-3.8 0.3-5.2 4.1-2.4 0.9-5.2 3.6-2.1 2-4.6 6-2.2-2.5-1.6-3.1-1.7-4.9-0.2-0.9-0.4-1.7-0.7-4.5 0.3-6.5-0.7-1.5-0.9-0.2-0.8-0.5-1.2-1.1-1.4-0.6-0.4 0.8-0.5 0.7-2.3-1-1.8-1.7-1.6-0.5-1.5-0.8-3.1-2.6-2.8-3-2.6-1.2-2.9-0.1-3.8-0.7-3.7-2 1.7-1.2 0.4-0.8-0.4-0.8 1.1-2.5 0.4-1.3-0.2-1.6-1.5-1.6-3.8 1.6-1.3-0.8 1.6-5.6-0.1-1.4-0.6-1.3-0.9-0.9 6.6-1.1 3.9 1 4 0.3 2-0.8 3.7-0.5 1.3-0.8 3.6-0.3 3.7 0.2 1.6-0.6 1.4-0.9 1.2-1.9 1.1-1.9 0.7-2 2.2-0.4 1 0.5 1.7 1.3 0.8 0.3 15.9-0.5 5.5-0.2 1.9-0.9 1.3-2 0-1.8 0.3-1.7 2.7-1.3 4.6-0.7 1.7 0.2 2.3 0.6 8.1 0.3 3.1-0.9 5.9-3.6 5.8-2.2 2.3-1.7 2.4 3.2 3.2 2.3 0.6 2.4-0.6 2.5 0.6 1.6 1.4 0.5 0.3 2-1.8 1-1.5 0.2-1.5 0.5-2.5 1.2-1.1 1.5-0.4 2.2-1 3.3-0.5 3.5 0.6 6.6-0.4 3.4-0.7 1.4-0.9 1.3-2.2 7.3-1.9 2.2-2.3 1.6-0.5 1.4 0.5 1.7 0.4 2.3 1 1.8z" id="TR21" name="Diyarbakir" fill="none" stroke="#000000" stroke-width="0.6" data-area-id="77" /><path d="M812.6 290.8l-8.8 6.3-5.3 3.9-7.3 1.5-5.1-3.2-3.3-6.9-3.4-4.3-0.9-0.4-1.2 0-1-1.8-0.4-2.3-0.5-1.7 0.5-1.4 2.3-1.6 1.9-2.2 2.2-7.3 0.9-1.3 0.7-1.4 0.4-3.4-0.6-6.6 0.5-3.5 1-3.3 0.4-2.2 1.1-1.5 2.5-1.2 1.5-0.5 1.5-0.2 1.8-1-0.3-2 2.6-0.9 2.7-0.3 4 1.5 1.7 8.2 1.1 3.3 0.2 2.2 0 2.2-0.2 1.4 0.1 1.3-2.1 2.6-1 3.2-2.4 2.7-5.5 1.5-1.5 2.8 0.4 4 5.1 4.7 8.6 3.5 5.1 5.6z" id="TR72" name="Batman" fill="none" stroke="#000000" stroke-width="0.6" data-area-id="78" /><path d="M869.8 289.7l-0.5 3.4-2.9 3-8.1-0.8-10-1.4-9.6-2.5-6.3-0.3-3.7 3.7-9.4-0.7-6.7-3.3-5.1-5.6-8.6-3.5-5.1-4.7-0.4-4 1.5-2.8 5.5-1.5 2.4-2.7 1-3.2 2.1-2.6 4.9 1.9 5.1 0.4 4.1-1 4.1-1.6 3.2 1.5 2.8 2.8 3.1 2.4 3.4 1.4 3.3 0.8 2.1 0.9 3 2.2 4.8 2.7 3.2 2.4 1.8-0.2 1.4-2.1 0.2-2.8-0.2-1.9 0-1.8 0.5-0.8 0.6-0.7 1.3-4 3.7-0.3 3.8 0.7 3.4 1.3 0.5 4.3-0.2 2.5 0.3 2.4-0.2 2.6-0.6 2.4-0.2 3.5-0.7 1.5-0.5 1.6 1.9 4.5z" id="TR56" name="Siirt" fill="none" stroke="#000000" stroke-width="0.6" data-area-id="79" /><path d="M718.4 116.5l1-0.1 0.7-0.8-0.3-1.5 0.6-0.6 0.3-0.2 1.5 0.5 2.9 3.3 1.9 1.1 4.1 0.1 3.9 1.3 2.1 0 2.3-0.8 2.4-0.4 4.9 0 1.9-0.6 0.9-0.2 1.5 3.8 1.4 8.5 1.2 3.8 2.9 1.7 3.1 0.7 1.4 0.6 3.1 0.3 0.2 1.2-1.2 2.2-1.3 1.7-5.9 2.1-2.7 1.3-2 2-2.1 1.6-1.7 0.3-7.8-1-7.7-1.5-2.3 0.8-1.9 1.8-2.4 0.3-2.7-0.3-2.5 1-1.8-3.9-1-4.2 0.2-2 0.6-2 1.5-3.6 0.4-9.1-1.6-9.2z" id="TR69" name="Bayburt" fill="none" stroke="#000000" stroke-width="0.6" data-area-id="80" /><path d="M685.6 103.3l0.9 0.7 1 0.1 1-0.9 0.8-1.1 2 1.2 0.7 3.7 3.2 3.3 11.1 4.5 2.8 0.3 1-0.2 0.7-0.8 0.6-2.6 1.4-1.1 3.3 2.2 2.3 3.9 1.6 9.2-0.4 9.1-1.5 3.6-0.6 2-0.2 2 1 4.2 1.8 3.9-1.8 2.7-2.1 2.2-5.3 1.3-2.6 1.3-2.7 0.2-2.8-0.2-2.8 0.3-2.9-0.3-2.8-1.4-2.9-0.9-0.8-0.8-0.7-1.1-1.8-1.1-1.8-0.7-5.2-3.1-1.4-0.3-1.4-0.3-1.4-0.6-1.3-0.8 0.4-2-1.3-1.7-0.4-2.2 0.2-2.2-0.2-2.1 0.1-2.1 1-1.3 4.8-2.6 1.4-1.2 0.3-2.3-1.1-0.3-1.3-1.3-1.3-1.1-5.6-1.4-1.3-1.6-0.1-2.2 0.3-2.8 0.1-0.5 0.5-0.7 1.4-1.5 0.9-1.7-0.6-1.9 0.6-1.6 1.5-1 1.4-1.2 1.2-0.3 0.9-0.5 0.2-0.9 0.3-0.7 5.7-0.7z" id="TR29" name="Gümüshane" fill="none" stroke="#000000" stroke-width="0.6" data-area-id="81" /></svg>